<?xml version="1.0" encoding="utf-8"?>
<!-- Generator: Adobe Illustrator 24.0.1, SVG Export Plug-In . SVG Version: 6.00 Build 0)  -->
<svg version="1.1" id="Layer_1" xmlns="http://www.w3.org/2000/svg" xmlns:xlink="http://www.w3.org/1999/xlink" x="0px" y="0px"
	 viewBox="0 0 42 30" style="enable-background:new 0 0 42 30;" xml:space="preserve">
<style type="text/css">
	.st0{fill:#FFFFFF;}
	.st1{font-family:'MSReferenceSansSerif';}
	.st2{font-size:3.6654px;}
	.st3{fill:#7267EF;}
</style>
<g>
	<text transform="matrix(1 0 0 1 9.8223 29.1879)" class="st0 st1 st2">Let’s start</text>
	<g>
		<g>
			<g>
				<g>
					<g>
						<g>
							<polygon class="st3" points="16.4,23.1 13.8,23.1 13.8,11.3 16.4,12.4 							"/>
							<path class="st0" d="M16.6,23.3h-3L13.7,11l2.8,1.3L16.6,23.3z M13.9,23h2.3l-0.1-10.5l-2.2-1L13.9,23z"/>
						</g>
						<g>
							<polygon class="st3" points="28.1,11.3 25.6,12.4 25.5,23.1 28.2,23.1 							"/>
							<path class="st0" d="M28.3,23.3h-3l0.1-11l2.8-1.3L28.3,23.3z M25.7,23H28l-0.1-11.4l-2.2,1L25.7,23z"/>
						</g>
						<g>
							<polygon class="st3" points="22.2,13.9 21,14.4 21,14.4 19.7,13.9 19.6,23.1 22.3,23.1 							"/>
							<path class="st0" d="M22.5,23.3h-3l0.1-9.6l1.4,0.6l1.4-0.6L22.5,23.3z M19.8,23h2.3l-0.1-8.9L21,14.6l-0.1,0l-1-0.5L19.8,23
								z"/>
						</g>
					</g>
				</g>
				<path class="st0" d="M38.6,23.5L38.6,23.5c0-0.3-0.2-0.5-0.5-0.5H3.9c-0.3,0-0.5,0.2-0.5,0.5v0c0,0.3-0.2,0.5-0.5,0.5H1.1
					c-0.3,0-0.5,0.2-0.5,0.5v1.1h40.7v-1.1c0-0.3-0.2-0.5-0.5-0.5h-1.7C38.8,24,38.6,23.8,38.6,23.5z"/>
				<g>
					<path class="st0" d="M8.5,12.6H8.4c-0.3,0-0.5-0.2-0.5-0.5V8.7c0-0.3,0.2-0.5,0.5-0.5h0.2C8.8,8.2,9,8.4,9,8.7v3.4
						C9,12.4,8.8,12.6,8.5,12.6z"/>
					<path class="st3" d="M34.3,7.3L28.2,10l-0.1,0l-2.5,1.1l-0.1,0l-3.2,1.4l-0.1,0L21,13.1l-1.3-0.6l-0.1,0l-3.2-1.4l0,0v1.2l0,0
						l-2.5-1.1l-0.1,0l0,0l-3.2-1.4L7.7,8.5c-0.5-0.2-0.5-1,0-1.2l0,0L21,1.4L31.4,6L34.3,7.3z"/>
					<path class="st0" d="M34.3,7.3c0.5,0.2,0.5,1,0,1.2l-6.1,2.7l-0.1,0l-2.5,1.1l-0.1,0l-3.2,1.4l-0.1,0L21,14.4l-1.3-0.6l-0.1,0
						l-3.2-1.4l0,0v-1.2l0,0l3.2,1.4l0.1,0l1.3,0.6l1.3-0.6l0.1,0l3.2-1.4l0.1,0l2.5-1.1l0.1,0L34.3,7.3L34.3,7.3z"/>
					<path class="st0" d="M34.4,7.3l-3-1.3L21,1.4l0,0L7.6,7.2l0,0c-0.6,0.2-0.6,1,0,1.3l3,1.3l3.2,1.4l0,0l0.1,0l2.5,1.1l0,0l0,0
						l3.2,1.4l0.1,0l1.3,0.6l0,0l1.3-0.6l0.1,0l3.2-1.4l0.1,0l2.5-1.1l0.1,0l6.2-2.8C35,8.3,35,7.5,34.4,7.3L34.4,7.3z M28.1,11.2
						l-2.5,1.1l-0.1,0l-3.2,1.4l-0.1,0L21,14.4l-1.3-0.6l-0.1,0l-3.2-1.4l0,0l0,0l-2.5-1.1l-0.1,0l0,0l-3.2-1.4L7.7,8.5
						c-0.5-0.2-0.5-1,0-1.2l0,0L21,1.4L31.4,6l2.9,1.3v0c0.5,0.2,0.5,1,0,1.2L28.1,11.2L28.1,11.2z"/>
				</g>
			</g>
			<g>
				<path class="st3" d="M34.4,6.1l-3-1.3L21,0.2L7.6,6.1C7.1,6.3,7.1,7,7.6,7.2l0,0l0.1,0l2.9,1.3l3.2,1.4l0,0l0.1,0l2.5,1.1l0,0
					l0,0l3.2,1.4l0.1,0l1.3,0.6c0,0,0,0,0,0l1.3-0.6l0.1,0l3.2-1.4l0.1,0l2.5-1.1l0.1,0l6.1-2.7l0.1,0l0,0C34.9,7,34.9,6.3,34.4,6.1
					z"/>
				<path class="st0" d="M21,13.3C21,13.3,21,13.3,21,13.3L7.6,7.4C7.3,7.3,7.1,7,7.1,6.7c0-0.3,0.2-0.6,0.5-0.7L21,0L34.4,6
					c0.3,0.1,0.5,0.4,0.5,0.7c0,0.3-0.2,0.6-0.5,0.7L21,13.3C21.1,13.3,21,13.3,21,13.3z M21,0.4L7.7,6.2C7.5,6.3,7.4,6.5,7.4,6.7
					c0,0.1,0.1,0.3,0.3,0.4L21,13l13.3-5.9c0.2-0.1,0.3-0.3,0.3-0.4c0-0.1-0.1-0.3-0.3-0.4L21,0.4z"/>
			</g>
		</g>
		<g>
			<g>
				<g>
					<path class="st0" d="M20.9,9.8L20.9,9.8l-1.3,0l0,0c0.2-0.3,0.3-0.8,0.3-1.2c0-0.1,0-0.2,0-0.3c0-0.4-0.1-0.7-0.3-1
						c-0.2-0.2-0.4-0.4-0.6-0.5l-0.1,0l0,0l0.1,0c0.1,0,0.2,0.1,0.2,0.1c0.2,0.1,0.4,0.3,0.5,0.5c0.2,0.3,0.3,0.6,0.3,1
						c0,0.1,0,0.2,0,0.2c0,0.4-0.1,0.9-0.3,1.2L20.9,9.8z"/>
					<path class="st0" d="M20.9,9.9l-1.3,0l0-0.1c0.2-0.3,0.3-0.8,0.3-1.2c0-0.1,0-0.2,0-0.3c0-0.4-0.1-0.7-0.3-1
						C19.4,7.1,19.2,7,19,6.8l-0.2-0.1l0.1,0c0.1,0,0.2,0.1,0.2,0.1c0.2,0.1,0.4,0.3,0.5,0.5c0.2,0.3,0.3,0.7,0.3,1
						c0,0.1,0,0.2,0,0.2c0,0.4-0.1,0.8-0.3,1.2L20.9,9.9L20.9,9.9z M19.6,9.8l1.3,0v0L19.6,9.8L19.6,9.8c0.3-0.4,0.4-0.8,0.4-1.2
						c0-0.1,0-0.2,0-0.2c0-0.4-0.1-0.7-0.3-1c-0.1-0.2-0.3-0.4-0.5-0.5c0,0,0,0,0,0c0,0-0.1,0-0.2-0.1l0.1,0
						c0.2,0.1,0.4,0.3,0.6,0.5c0.2,0.3,0.3,0.6,0.3,1c0,0.1,0,0.2,0,0.3C19.9,9,19.8,9.5,19.6,9.8L19.6,9.8z"/>
				</g>
				<g>
					<path class="st0" d="M20.9,7.1c-0.4,0-0.8-0.1-1.1-0.2l-0.2,0C20,7.1,20.4,7.2,20.9,7.1L20.9,7.1L20.9,7.1L20.9,7.1z"/>
					<path class="st0" d="M20.9,7.2L20.9,7.2c-0.5,0-0.9-0.1-1.3-0.2l-0.1,0l0.2,0C20.1,7.1,20.5,7.1,20.9,7.2L20.9,7.2L20.9,7.2z
						 M19.7,7c0.4,0.1,0.8,0.2,1.2,0.2v0C20.5,7.1,20.1,7.1,19.7,7L19.7,7z"/>
				</g>
				<g>
					<path class="st0" d="M20.9,2.7L20.9,2.7c-0.7-0.1-1.3,0.2-1.8,0.7c-0.5,0.5-0.8,1.1-0.8,1.8c0,0.3,0,0.6,0.1,0.8
						c0.1,0.3,0.2,0.5,0.4,0.7l0,0l0.1,0l2,0V6.7l-0.6,0l-1.4,0l0,0c-0.2-0.2-0.3-0.4-0.4-0.7c-0.1-0.3-0.1-0.5-0.1-0.8
						c0-0.7,0.3-1.3,0.7-1.8C19.6,2.9,20.2,2.7,20.9,2.7z"/>
					<path class="st0" d="M20.9,6.8l-2,0l-0.1,0l0,0c-0.2-0.2-0.3-0.5-0.4-0.7c-0.1-0.3-0.1-0.6-0.1-0.8c0-0.7,0.3-1.3,0.8-1.8
						c0.5-0.5,1.1-0.7,1.8-0.7c0,0,0,0,0,0h0v0.1h0c0,0,0,0,0,0c-0.7,0-1.3,0.3-1.7,0.7c-0.5,0.5-0.7,1.1-0.7,1.8
						c0,0.3,0,0.6,0.1,0.8c0.1,0.2,0.2,0.5,0.4,0.7l0,0L20.9,6.8L20.9,6.8z M18.8,6.7L18.8,6.7l2,0v0L18.8,6.7L18.8,6.7L18.8,6.7
						c-0.1-0.3-0.3-0.5-0.4-0.7c-0.1-0.3-0.1-0.5-0.1-0.8c0-0.7,0.3-1.3,0.7-1.8c0.5-0.5,1.1-0.7,1.8-0.7v0c-0.7,0-1.3,0.3-1.8,0.7
						c-0.5,0.5-0.8,1.1-0.8,1.8c0,0.3,0,0.6,0.1,0.8C18.5,6.2,18.7,6.5,18.8,6.7L18.8,6.7z"/>
				</g>
				<g>
					<path class="st0" d="M20.3,6.7c0.1-0.2,0.1-0.5,0.1-0.7c0-0.5-0.1-0.9-0.3-1.3l0,0c0,0-0.1,0-0.1,0c0.2,0.4,0.3,0.8,0.3,1.3
						C20.3,6.2,20.3,6.4,20.3,6.7L20.3,6.7L20.3,6.7l0.5,0.1V6.7L20.3,6.7z"/>
					<path class="st0" d="M20.9,6.7l-0.6,0l0,0c0.1-0.2,0.1-0.5,0.1-0.8c0-0.5-0.1-0.9-0.3-1.3l0,0l0,0c0,0,0.1,0,0.1,0l0,0
						c0.2,0.4,0.3,0.8,0.3,1.3c0,0.2,0,0.5-0.1,0.7L20.9,6.7L20.9,6.7z M20.3,6.7l0.6,0v0L20.3,6.7L20.3,6.7
						c0.1-0.3,0.1-0.5,0.1-0.8c0-0.5-0.1-0.9-0.3-1.3c0,0,0,0,0,0c0.2,0.4,0.3,0.8,0.3,1.3C20.4,6.2,20.3,6.4,20.3,6.7L20.3,6.7z"/>
				</g>
				<g>
					<path class="st0" d="M20.8,10.2c-0.4,0-0.8,0-1.1-0.1l-0.2,0C20,10.2,20.4,10.3,20.8,10.2C20.8,10.3,20.8,10.3,20.8,10.2
						L20.8,10.2C20.8,10.2,20.8,10.2,20.8,10.2z"/>
					<path class="st0" d="M20.7,10.3c-0.4,0-0.8-0.1-1.2-0.2l-0.1,0l0.2,0l0,0c0.4,0.1,0.7,0.1,1.1,0.1l0,0v0.1l0,0
						C20.8,10.3,20.8,10.3,20.7,10.3z M19.7,10.1c0.4,0.1,0.8,0.2,1.2,0.2l0,0v0l0,0C20.5,10.3,20.1,10.2,19.7,10.1L19.7,10.1z"/>
				</g>
				<g>
					<path class="st0" d="M20.3,11c0.2,0,0.4,0,0.5,0v0L20.3,11z"/>
					<path class="st0" d="M20.8,11.1c-0.2,0-0.3,0-0.5,0l0,0l0.6,0v0.1L20.8,11.1C20.8,11.1,20.8,11.1,20.8,11.1z M20.6,11
						c0.1,0,0.2,0,0.3,0v0L20.6,11z"/>
				</g>
				<g>
					<path class="st0" d="M20.3,10.6l-0.3,0c0.3,0.1,0.6,0.1,0.9,0.1v0C20.7,10.6,20.4,10.6,20.3,10.6z"/>
					<path class="st0" d="M20.8,10.7c-0.3,0-0.5,0-0.8-0.1l-0.1,0l0.4,0l0,0C20.4,10.6,20.7,10.6,20.8,10.7L20.8,10.7L20.8,10.7
						L20.8,10.7C20.8,10.7,20.8,10.7,20.8,10.7z M20.1,10.6c0.2,0,0.5,0.1,0.7,0v0c-0.2,0-0.4,0-0.6,0L20.1,10.6z"/>
				</g>
			</g>
			<g id="Element_4_">
				<g id="brainstorm_4_">
					<g>
						<g>
							<path class="st0" d="M23.4,5.5L23.4,5.5l-0.1-0.1c0-0.5-0.3-1-0.7-1H22V4.4h0.6c0.2,0,0.4,0.1,0.6,0.3
								c0.2,0.2,0.2,0.5,0.2,0.7V5.5z"/>
							<path class="st0" d="M23.4,5.6L23.4,5.6l-0.1-0.2c0-0.5-0.3-1-0.7-1H22V4.4h0.6c0.2,0,0.4,0.1,0.6,0.3
								c0.2,0.2,0.2,0.5,0.2,0.7V5.6z M23.3,5.5L23.3,5.5l0-0.1c0-0.3-0.1-0.5-0.2-0.7c-0.2-0.2-0.4-0.3-0.6-0.3H22v0h0.5
								c0.4,0,0.8,0.4,0.8,1V5.5z"/>
						</g>
						<g>
							<path class="st0" d="M22.6,9h-0.8V9L22.6,9c0.2-0.1,0.3-0.2,0.3-0.5c0-0.2-0.1-0.4-0.3-0.4h-0.1V8.1h0.1c0.1,0,0.2,0,0.3,0.1
								C23,8.3,23,8.4,23,8.6c0,0.1,0,0.2-0.1,0.3C22.8,9,22.7,9,22.6,9z"/>
							<path class="st0" d="M22.6,9h-0.8V9L22.6,9c0.2-0.1,0.3-0.3,0.3-0.5c0-0.2-0.1-0.4-0.3-0.4h-0.1V8.1h0.1
								c0.1,0,0.2,0.1,0.3,0.1C23,8.3,23,8.4,23,8.6c0,0.1,0,0.2-0.1,0.3C22.8,9,22.7,9,22.6,9z M21.9,9h0.8c0.1,0,0.2,0,0.3-0.1
								C22.9,8.8,23,8.7,23,8.6c0-0.1,0-0.2-0.1-0.3c-0.1-0.1-0.2-0.1-0.3-0.1h-0.1v0h0.1c0.2,0,0.3,0.2,0.3,0.4
								c0,0.2-0.1,0.4-0.3,0.4L21.9,9L21.9,9z"/>
						</g>
						<g>
							<path class="st0" d="M21.3,4.9L21.3,4.9c-0.1-0.2,0-0.3,0.1-0.4c0.1-0.1,0.2-0.1,0.4-0.1h0.9c0.1,0,0.2,0,0.2-0.1
								C23,4.2,23,4.1,23,4c0-0.2-0.1-0.4-0.3-0.4h-0.9V3.6h0.9C22.9,3.6,23,3.8,23,4c0,0.1,0,0.2-0.1,0.3c-0.1,0.1-0.2,0.2-0.3,0.2
								h-0.9C21.5,4.4,21.3,4.6,21.3,4.9z"/>
							<path class="st0" d="M21.4,4.9L21.4,4.9L21.4,4.9c-0.1-0.2,0-0.3,0-0.4c0.1-0.1,0.2-0.2,0.4-0.2h0.9c0.1,0,0.2,0,0.2-0.1
								C22.9,4.2,23,4.1,23,4c0-0.1-0.1-0.4-0.3-0.4h-0.9V3.5h0.9C22.9,3.5,23,3.8,23,4c0,0.1,0,0.2-0.1,0.3
								c-0.1,0.1-0.2,0.2-0.3,0.2h-0.9C21.5,4.4,21.4,4.6,21.4,4.9L21.4,4.9z M21.3,4.9L21.3,4.9c0-0.3,0.2-0.5,0.5-0.5h0.9
								c0.1,0,0.2-0.1,0.3-0.2C23,4.2,23,4.1,23,4c0-0.2-0.1-0.4-0.4-0.4h-0.9v0h0.9C22.9,3.6,23,3.8,23,4c0,0.1,0,0.2-0.1,0.3
								c-0.1,0.1-0.1,0.1-0.2,0.1h-0.9c-0.2,0-0.3,0-0.4,0.1C21.3,4.6,21.3,4.7,21.3,4.9z"/>
						</g>
						<g>
							<path class="st0" d="M22.3,6.2h-0.6V6.2L22.3,6.2c0.2-0.1,0.3-0.2,0.3-0.5c0-0.2-0.1-0.4-0.3-0.4V5.3c0.1,0,0.2,0,0.3,0.1
								c0.1,0.1,0.1,0.2,0.1,0.3c0,0.1,0,0.2-0.1,0.3C22.5,6.2,22.4,6.2,22.3,6.2z"/>
							<path class="st0" d="M22.3,6.3h-0.6V6.2L22.3,6.3c0.2-0.1,0.3-0.3,0.3-0.5c0-0.2-0.1-0.4-0.3-0.4h0V5.3h0
								c0.1,0,0.2,0.1,0.3,0.1c0.1,0.1,0.1,0.2,0.1,0.3s0,0.2-0.1,0.3C22.5,6.2,22.4,6.3,22.3,6.3z M21.7,6.2h0.6
								c0.1,0,0.2,0,0.3-0.1c0.1-0.1,0.1-0.2,0.1-0.3s0-0.2-0.1-0.3c-0.1-0.1-0.2-0.1-0.2-0.1v0c0.2,0,0.3,0.2,0.3,0.4
								c0,0.2-0.1,0.4-0.3,0.4L21.7,6.2L21.7,6.2z"/>
						</g>
						<g>
							<path class="st0" d="M22.4,8.2h-0.8c-0.1,0-0.2,0-0.3-0.1c-0.1-0.1-0.1-0.2-0.1-0.3c0-0.1,0-0.2,0.1-0.3
								c0.1-0.1,0.2-0.1,0.3-0.1v0.1c-0.2,0-0.3,0.2-0.3,0.4c0,0.2,0.1,0.4,0.3,0.4L22.4,8.2L22.4,8.2z"/>
							<path class="st0" d="M22.4,8.2h-0.8c-0.1,0-0.2-0.1-0.3-0.1c-0.1-0.1-0.1-0.2-0.1-0.3c0-0.1,0-0.2,0.1-0.3
								c0.1-0.1,0.2-0.1,0.3-0.1h0v0.1h0c-0.2,0-0.3,0.2-0.3,0.4s0.1,0.4,0.3,0.4L22.4,8.2L22.4,8.2z M21.7,7.2
								c-0.1,0-0.2,0.1-0.2,0.1c-0.1,0.1-0.1,0.2-0.1,0.3c0,0.1,0,0.2,0.1,0.3c0.1,0.1,0.2,0.1,0.3,0.1h0.8v0h-0.8
								c-0.2,0-0.3-0.2-0.3-0.4C21.3,7.5,21.5,7.3,21.7,7.2L21.7,7.2z"/>
						</g>
						<g>
							<path class="st0" d="M21,11L21,11L21,3.6c0-0.3,0.1-0.5,0.2-0.7c0.1-0.2,0.3-0.3,0.5-0.3c0.2,0,0.4,0.1,0.5,0.3
								c0.1,0.2,0.2,0.4,0.2,0.7h-0.1c0-0.5-0.3-0.9-0.7-0.9c-0.4,0-0.7,0.4-0.7,0.9V11z"/>
							<path class="st0" d="M21.1,11L21.1,11L21,3.6c0-0.3,0.1-0.5,0.2-0.7c0.1-0.2,0.3-0.3,0.6-0.3s0.4,0.1,0.6,0.3
								c0.1,0.2,0.2,0.4,0.2,0.7v0h-0.1v0c0-0.5-0.3-0.9-0.7-0.9s-0.7,0.4-0.7,0.9V11z M21,11L21,11l0-7.4c0-0.5,0.3-0.9,0.7-0.9
								c0.4,0,0.7,0.4,0.7,0.9h0c0-0.3-0.1-0.5-0.2-0.7c-0.1-0.2-0.3-0.3-0.5-0.3s-0.4,0.1-0.5,0.3C21.1,3.1,21,3.3,21,3.6V11z"/>
						</g>
						<g>
							<path class="st0" d="M22.5,8.2h-0.9V8.1L22.5,8.2c0.5-0.1,0.9-0.6,0.9-1.2h0.1c0,0.3-0.1,0.6-0.3,0.9C23.1,7.9,23,8,22.9,8.1
								C22.8,8.1,22.7,8.2,22.5,8.2z"/>
							<path class="st0" d="M22.5,8.2h-0.9V8.1L22.5,8.2c0.5-0.1,0.9-0.6,0.9-1.2v0h0.1v0c0,0.3-0.1,0.6-0.3,0.9
								C23.1,7.9,23,8,22.9,8.1C22.8,8.1,22.7,8.2,22.5,8.2z M21.7,8.1h0.9c0.1,0,0.3,0,0.4-0.1C23,8,23.1,7.9,23.2,7.8
								c0.2-0.2,0.3-0.5,0.3-0.8h0c0,0.6-0.4,1.2-0.9,1.2L21.7,8.1L21.7,8.1z"/>
						</g>
						<g>
							<path class="st0" d="M21,6.7L21,6.7c-0.1-0.1,0-0.3,0.1-0.4c0.1-0.1,0.2-0.2,0.3-0.2h0.7v0.1h-0.7C21.2,6.2,21,6.4,21,6.7z"
								/>
							<path class="st0" d="M21.1,6.7L21.1,6.7L21.1,6.7c-0.1-0.2,0-0.3,0-0.4c0.1-0.1,0.2-0.2,0.3-0.2h0.7v0.1h-0.7
								C21.2,6.3,21.1,6.5,21.1,6.7L21.1,6.7z M21,6.7L21,6.7c0-0.3,0.2-0.5,0.4-0.5h0.7v0h-0.7c-0.1,0-0.2,0.1-0.3,0.2
								C21,6.4,21,6.6,21,6.7z"/>
						</g>
						<g>
							<path class="st0" d="M21.9,9.9h-0.5V9.8L21.9,9.9c0.2-0.1,0.3-0.2,0.3-0.5S22,9,21.9,9V9c0.1,0,0.2,0,0.3,0.1
								c0.1,0.1,0.1,0.2,0.1,0.3c0,0.1,0,0.2-0.1,0.3C22.1,9.8,22,9.9,21.9,9.9z"/>
							<path class="st0" d="M21.9,9.9h-0.5V9.8L21.9,9.9c0.2-0.1,0.3-0.3,0.3-0.5S22,9,21.9,9h0V9h0C22,9,22.1,9,22.1,9.1
								c0.1,0.1,0.1,0.2,0.1,0.3c0,0.1,0,0.2-0.1,0.3C22.1,9.8,22,9.9,21.9,9.9z M21.4,9.9h0.5c0.1,0,0.2,0,0.2-0.1
								c0.1-0.1,0.1-0.2,0.1-0.3c0-0.1,0-0.2-0.1-0.3C22.1,9,22,9,21.9,9v0c0.2,0,0.3,0.2,0.3,0.4c0,0.2-0.1,0.4-0.3,0.4L21.4,9.9
								L21.4,9.9z"/>
						</g>
						<g>
							<path class="st0" d="M23,7.1h-0.7V7.1L23,7.1c0.3-0.1,0.6-0.4,0.6-0.9c0-0.4-0.3-0.8-0.6-0.8h-0.2V5.4H23
								c0.2,0,0.4,0.1,0.5,0.3c0.1,0.2,0.2,0.4,0.2,0.6c0,0.2-0.1,0.5-0.2,0.6C23.4,7.1,23.2,7.1,23,7.1z"/>
							<path class="st0" d="M23,7.2h-0.7V7.1L23,7.2c0.3-0.1,0.6-0.5,0.6-0.9c0-0.4-0.3-0.8-0.6-0.8h-0.2V5.4H23
								c0.2,0,0.4,0.1,0.5,0.3c0.1,0.2,0.2,0.4,0.2,0.6s-0.1,0.5-0.2,0.6C23.4,7.1,23.2,7.2,23,7.2z M22.3,7.1H23
								c0.2,0,0.4-0.1,0.5-0.3c0.1-0.2,0.2-0.4,0.2-0.6s-0.1-0.4-0.2-0.6c-0.1-0.2-0.3-0.3-0.5-0.3h-0.2v0H23c0.4,0,0.6,0.4,0.6,0.8
								c0,0.5-0.3,0.8-0.6,0.8L22.3,7.1L22.3,7.1z"/>
						</g>
						<g>
							<path class="st0" d="M21.7,7.3c0-0.1,0-0.1-0.1-0.1c0,0-0.1,0-0.1,0.1c0,0.1,0,0.1,0.1,0.1C21.7,7.4,21.7,7.3,21.7,7.3z"/>
							<path class="st0" d="M21.7,7.4c-0.1,0-0.1-0.1-0.1-0.1c0-0.1,0-0.1,0.1-0.1c0.1,0,0.1,0.1,0.1,0.1
								C21.8,7.3,21.7,7.4,21.7,7.4z M21.7,7.2C21.6,7.2,21.6,7.2,21.7,7.2c-0.1,0.1,0,0.2,0,0.2C21.7,7.3,21.7,7.3,21.7,7.2
								C21.7,7.2,21.7,7.2,21.7,7.2z"/>
						</g>
						<g>
							<path class="st0" d="M22.9,5.4c0-0.1,0-0.1-0.1-0.1c0,0-0.1,0-0.1,0.1c0,0.1,0,0.1,0.1,0.1C22.9,5.5,22.9,5.5,22.9,5.4z"/>
							<path class="st0" d="M22.8,5.5c-0.1,0-0.1-0.1-0.1-0.1c0-0.1,0-0.1,0.1-0.1c0.1,0,0.1,0.1,0.1,0.1
								C22.9,5.5,22.9,5.5,22.8,5.5z M22.8,5.3C22.8,5.3,22.8,5.4,22.8,5.3c-0.1,0.1,0,0.2,0,0.2C22.9,5.5,22.9,5.5,22.8,5.3
								C22.9,5.4,22.9,5.3,22.8,5.3z"/>
						</g>
						<g>
							<path class="st0" d="M22.4,5.3c0-0.1,0-0.1-0.1-0.1c0,0-0.1,0-0.1,0.1c0,0.1,0,0.1,0.1,0.1C22.3,5.4,22.4,5.4,22.4,5.3z"/>
							<path class="st0" d="M22.3,5.5c-0.1,0-0.1-0.1-0.1-0.1c0-0.1,0-0.1,0.1-0.1s0.1,0.1,0.1,0.1C22.4,5.4,22.4,5.5,22.3,5.5z
								 M22.3,5.2C22.3,5.2,22.2,5.3,22.3,5.2c-0.1,0.1,0,0.2,0,0.2C22.3,5.4,22.4,5.4,22.3,5.2C22.4,5.3,22.3,5.2,22.3,5.2z"/>
						</g>
						<g>
							<path class="st0" d="M22.4,7.1c0-0.1,0-0.1-0.1-0.1c0,0-0.1,0-0.1,0.1c0,0.1,0,0.1,0.1,0.1C22.4,7.2,22.4,7.2,22.4,7.1z"/>
							<path class="st0" d="M22.4,7.2c-0.1,0-0.1-0.1-0.1-0.1c0-0.1,0-0.1,0.1-0.1s0.1,0.1,0.1,0.1C22.4,7.2,22.4,7.2,22.4,7.2z
								 M22.4,7C22.3,7,22.3,7.1,22.4,7c-0.1,0.1,0,0.2,0,0.2S22.4,7.2,22.4,7C22.4,7.1,22.4,7,22.4,7z"/>
						</g>
						<g>
							<path class="st0" d="M21.4,4.9c0-0.1,0-0.1-0.1-0.1c0,0-0.1,0-0.1,0.1c0,0.1,0,0.1,0.1,0.1C21.4,5,21.4,4.9,21.4,4.9z"/>
							<path class="st0" d="M21.3,5c-0.1,0-0.1-0.1-0.1-0.1c0-0.1,0-0.1,0.1-0.1s0.1,0.1,0.1,0.1C21.4,5,21.4,5,21.3,5z M21.3,4.8
								C21.3,4.8,21.2,4.8,21.3,4.8c-0.1,0.1,0,0.2,0,0.2C21.3,5,21.4,4.9,21.3,4.8C21.4,4.8,21.3,4.8,21.3,4.8z"/>
						</g>
						<g>
							<path class="st0" d="M21.1,11c0-0.1,0-0.1-0.1-0.1c0,0-0.1,0-0.1,0.1c0,0.1,0,0.1,0.1,0.1C21,11.1,21.1,11.1,21.1,11z"/>
							<path class="st0" d="M21,11.1c-0.1,0-0.1-0.1-0.1-0.1c0-0.1,0-0.1,0.1-0.1c0.1,0,0.1,0.1,0.1,0.1
								C21.1,11.1,21.1,11.1,21,11.1z M21,10.9C21,10.9,20.9,11,21,10.9c-0.1,0.1,0,0.2,0,0.2C21,11.1,21.1,11.1,21,10.9
								C21.1,11,21,10.9,21,10.9z"/>
						</g>
						<g>
							<path class="st0" d="M21.8,3.6c0-0.1,0-0.1-0.1-0.1c0,0-0.1,0-0.1,0.1c0,0.1,0,0.1,0.1,0.1C21.8,3.7,21.8,3.6,21.8,3.6z"/>
							<path class="st0" d="M21.7,3.7c-0.1,0-0.1-0.1-0.1-0.1c0-0.1,0-0.1,0.1-0.1s0.1,0.1,0.1,0.1C21.8,3.6,21.8,3.7,21.7,3.7z
								 M21.7,3.5C21.7,3.5,21.7,3.5,21.7,3.5c-0.1,0.1,0,0.2,0,0.2S21.8,3.6,21.7,3.5C21.8,3.5,21.8,3.5,21.7,3.5z"/>
						</g>
						<g>
							<path class="st0" d="M21.4,9.8c0-0.1,0-0.1-0.1-0.1c0,0-0.1,0-0.1,0.1c0,0.1,0,0.1,0.1,0.1C21.4,9.9,21.4,9.9,21.4,9.8z"/>
							<path class="st0" d="M21.3,10c-0.1,0-0.1-0.1-0.1-0.1c0-0.1,0-0.1,0.1-0.1c0.1,0,0.1,0.1,0.1,0.1C21.4,9.9,21.4,10,21.3,10z
								 M21.3,9.8C21.3,9.8,21.3,9.8,21.3,9.8c-0.1,0.1,0,0.2,0,0.2S21.4,9.9,21.3,9.8C21.4,9.8,21.4,9.8,21.3,9.8z"/>
						</g>
						<g>
							<path class="st0" d="M22,9c0-0.1,0-0.1-0.1-0.1c0,0-0.1,0-0.1,0.1c0,0.1,0,0.1,0.1,0.1C21.9,9.1,22,9.1,22,9z"/>
							<path class="st0" d="M21.9,9.1c-0.1,0-0.1-0.1-0.1-0.1c0-0.1,0-0.1,0.1-0.1C21.9,8.9,22,8.9,22,9C22,9.1,21.9,9.1,21.9,9.1z
								 M21.9,8.9C21.8,8.9,21.8,8.9,21.9,8.9c-0.1,0.1,0,0.2,0,0.2C21.9,9.1,21.9,9,21.9,8.9C21.9,8.9,21.9,8.9,21.9,8.9z"/>
						</g>
						<g>
							<rect x="23.4" y="6.9" class="st0" width="0.1" height="0"/>
							<path class="st0" d="M23.5,6.9L23.5,6.9L23.5,6.9L23.5,6.9L23.5,6.9z M23.4,6.9L23.4,6.9L23.4,6.9L23.4,6.9L23.4,6.9z"/>
						</g>
					</g>
				</g>
			</g>
			<rect x="20.8" y="10.7" class="st0" width="0" height="0.4"/>
			<rect x="20.8" y="10.3" class="st0" width="0" height="0.3"/>
			<rect x="20.8" y="9.9" class="st0" width="0" height="0.4"/>
			<rect x="20.8" y="7.2" class="st0" width="0" height="2.6"/>
			<rect x="20.8" y="6.7" class="st0" width="0" height="0.4"/>
		</g>
	</g>
</g>
</svg>
