<?xml version="1.0" encoding="utf-8"?>
<!-- Generator: Adobe Illustrator 24.0.1, SVG Export Plug-In . SVG Version: 6.00 Build 0)  -->
<svg version="1.1" id="Layer_1" xmlns="http://www.w3.org/2000/svg" xmlns:xlink="http://www.w3.org/1999/xlink" x="0px" y="0px"
	 viewBox="0 0 42.3 30.5" style="enable-background:new 0 0 42.3 30.5;" xml:space="preserve">
<style type="text/css">
	.st0{fill:#7267EF;}
	.st1{font-family:'MSReferenceSansSerif';}
	.st2{font-size:3.6759px;}
	.st3{fill:#FFFFFF;}
</style>
<g>
	<g>
		<text transform="matrix(1 0 0 1 9.9593 29.7396)" class="st0 st1 st2">Let’s start</text>
	</g>
	<g>
		<g>
			<g>
				<g>
					<g>
						<g>
							<polygon class="st3" points="16.6,23.6 13.9,23.6 14,11.8 16.5,12.9 							"/>
							<path class="st0" d="M16.8,23.8h-3l0.1-12.3l2.8,1.3L16.8,23.8z M14.1,23.5h2.3L16.4,13l-2.2-1L14.1,23.5z"/>
						</g>
						<g>
							<polygon class="st3" points="28.3,11.8 25.7,12.9 25.7,23.6 28.3,23.6 							"/>
							<path class="st0" d="M28.5,23.8h-3l0.1-11l2.8-1.3L28.5,23.8z M25.8,23.5h2.3L28.1,12l-2.2,1L25.8,23.5z"/>
						</g>
						<g>
							<polygon class="st3" points="22.4,14.4 21.1,14.9 21.1,14.9 19.9,14.4 19.8,23.6 22.5,23.6 							"/>
							<path class="st0" d="M22.6,23.8h-3l0.1-9.7l1.4,0.6l1.4-0.6L22.6,23.8z M20,23.5h2.3l-0.1-8.9l-1.1,0.5L20,14.6L20,23.5z"/>
						</g>
					</g>
				</g>
				<path class="st0" d="M38.8,24.1L38.8,24.1c0-0.3-0.2-0.5-0.5-0.5H4c-0.3,0-0.5,0.2-0.5,0.5v0c0,0.3-0.2,0.5-0.5,0.5H1.3
					c-0.3,0-0.5,0.2-0.5,0.5v1.1h40.8V25c0-0.3-0.2-0.5-0.5-0.5h-1.8C39.1,24.5,38.8,24.3,38.8,24.1z"/>
				<g>
					<path class="st0" d="M8.6,13.1L8.6,13.1c-0.3,0-0.5-0.2-0.5-0.5V9.3c0-0.3,0.2-0.5,0.5-0.5h0c0.3,0,0.5,0.2,0.5,0.5v3.3
						C9.1,12.8,8.9,13.1,8.6,13.1z"/>
					<path class="st3" d="M34.5,7.8l-6.1,2.7l-0.1,0l-2.5,1.1l-0.1,0l-3.2,1.4l-0.1,0l-1.3,0.6l-1.3-0.6l-0.1,0l-3.2-1.4l0,0v1.2
						l0,0L14,11.7l-0.1,0l0,0l-3.2-1.4L7.8,9c-0.5-0.2-0.5-1,0-1.2l0,0l13.3-5.9l10.4,4.6L34.5,7.8z"/>
					<path class="st0" d="M34.5,7.8C35,8,35,8.8,34.5,9l-6.1,2.7l-0.1,0l-2.5,1.1l-0.1,0l-3.2,1.4l-0.1,0l-1.3,0.6l-1.3-0.6l-0.1,0
						l-3.2-1.4l0,0v-1.2l0,0l3.2,1.4l0.1,0l1.3,0.6l1.3-0.6l0.1,0l3.2-1.4l0.1,0l2.5-1.1l0.1,0L34.5,7.8L34.5,7.8z"/>
					<path class="st0" d="M34.6,7.7l-3-1.3L21.2,1.8l0,0L7.8,7.7l0,0C7.2,8,7.2,8.8,7.8,9l3,1.3l3.2,1.4l0,0l0.1,0l2.5,1.1l0,0l0,0
						l3.2,1.4l0.1,0l1.3,0.6l0,0l1.3-0.6l0.1,0l3.2-1.4l0.1,0l2.5-1.1l0.1,0L34.6,9C35.2,8.8,35.2,8,34.6,7.7L34.6,7.7z M28.3,11.7
						l-2.5,1.1l-0.1,0l-3.2,1.4l-0.1,0l-1.3,0.6l-1.3-0.6l-0.1,0l-3.2-1.4l0,0l0,0L14,11.7l-0.1,0l0,0l-3.2-1.4L7.8,9
						c-0.5-0.2-0.5-1,0-1.2l0,0l13.3-5.9l10.4,4.6l2.9,1.3l0,0C35,8,35,8.8,34.5,9L28.3,11.7L28.3,11.7z"/>
				</g>
			</g>
			<g>
				<path class="st3" d="M34.6,6.6l-3-1.3L21.2,0.7L7.8,6.6c-0.5,0.2-0.5,0.9,0,1.2l0,0l0.1,0l2.9,1.3l3.2,1.4l0,0l0.1,0l2.5,1.1
					l0,0l0,0l3.2,1.4l0.1,0l1.3,0.6c0,0,0,0,0,0l1.3-0.6l0.1,0l3.2-1.4l0.1,0l2.5-1.1l0.1,0l6.1-2.7l0.1,0l0,0
					C35.1,7.5,35.1,6.8,34.6,6.6z"/>
				<path class="st0" d="M21.2,13.8C21.2,13.8,21.1,13.8,21.2,13.8L7.7,7.9C7.4,7.8,7.2,7.5,7.2,7.2c0-0.3,0.2-0.6,0.5-0.7l13.5-5.9
					l13.5,5.9c0.3,0.1,0.5,0.4,0.5,0.7s-0.2,0.6-0.5,0.7L21.2,13.8C21.2,13.8,21.2,13.8,21.2,13.8z M21.2,0.9L7.8,6.7
					C7.6,6.8,7.5,7,7.5,7.2c0,0.1,0.1,0.3,0.3,0.4l13.4,5.9l13.3-5.9c0.2-0.1,0.3-0.3,0.3-0.4c0-0.1-0.1-0.3-0.3-0.4L21.2,0.9z"/>
			</g>
		</g>
		<g>
			<g>
				<g>
					<g>
						<path class="st0" d="M21,10.3L21,10.3l-1.3,0l0,0c0.2-0.3,0.3-0.8,0.3-1.2c0-0.1,0-0.2,0-0.3c0-0.4-0.1-0.7-0.3-1
							c-0.2-0.2-0.4-0.4-0.6-0.5l-0.1,0l0,0l0.1,0c0.1,0,0.2,0.1,0.2,0.1c0.2,0.1,0.4,0.3,0.5,0.5c0.2,0.3,0.3,0.7,0.3,1
							c0,0.1,0,0.2,0,0.2c0,0.4-0.1,0.9-0.3,1.2L21,10.3z"/>
						<path class="st0" d="M21,10.4l-1.4,0l0-0.1C19.9,10,20,9.5,20,9.1c0-0.1,0-0.2,0-0.3c0-0.4-0.1-0.7-0.3-1
							c-0.2-0.2-0.3-0.4-0.6-0.5L19,7.3l0.1,0c0.1,0,0.2,0.1,0.2,0.1c0.2,0.1,0.4,0.3,0.5,0.5c0.2,0.3,0.3,0.7,0.3,1
							c0,0.1,0,0.2,0,0.2c0,0.4-0.1,0.8-0.3,1.2L21,10.4L21,10.4z M19.7,10.3l1.3,0v0L19.7,10.3L19.7,10.3c0.3-0.4,0.4-0.8,0.4-1.2
							c0-0.1,0-0.2,0-0.2c0-0.4-0.1-0.7-0.3-1c-0.1-0.2-0.3-0.4-0.5-0.5c0,0,0,0,0,0c0,0-0.1,0-0.2-0.1l0.1,0
							c0.2,0.1,0.4,0.3,0.6,0.5c0.2,0.3,0.3,0.6,0.3,1c0,0.1,0,0.2,0,0.3C20.1,9.5,19.9,10,19.7,10.3L19.7,10.3z"/>
					</g>
					<g>
						<path class="st0" d="M21,7.6c-0.4,0-0.8-0.1-1.1-0.2l-0.2,0C20.1,7.6,20.6,7.7,21,7.6L21,7.6L21,7.6L21,7.6z"/>
						<path class="st0" d="M21,7.7L21,7.7c-0.5,0-0.9-0.1-1.3-0.2l-0.1,0l0.2,0C20.3,7.5,20.6,7.6,21,7.7L21,7.7L21,7.7z M19.8,7.5
							c0.4,0.1,0.8,0.2,1.2,0.2v0C20.6,7.6,20.3,7.6,19.8,7.5L19.8,7.5z"/>
					</g>
					<g>
						<path class="st0" d="M21,3.1L21,3.1c-0.7-0.1-1.3,0.2-1.8,0.7c-0.5,0.5-0.8,1.1-0.8,1.8c0,0.3,0,0.6,0.1,0.8
							C18.7,6.7,18.8,7,19,7.2l0,0l0.1,0l2,0V7.2l-0.6,0l-1.4,0l0,0c-0.2-0.2-0.3-0.4-0.4-0.7c-0.1-0.3-0.1-0.5-0.1-0.8
							c0-0.7,0.3-1.3,0.7-1.8C19.7,3.4,20.4,3.1,21,3.1z"/>
						<path class="st0" d="M21,7.2l-2,0l-0.1,0l0,0c-0.2-0.2-0.3-0.5-0.4-0.7c-0.1-0.3-0.1-0.6-0.1-0.9c0-0.7,0.3-1.3,0.8-1.8
							c0.5-0.5,1.1-0.7,1.8-0.7c0,0,0,0,0,0h0v0.1h0c0,0,0,0,0,0c-0.7,0-1.3,0.3-1.8,0.7c-0.5,0.5-0.7,1.1-0.7,1.8
							c0,0.3,0,0.6,0.1,0.8c0.1,0.2,0.2,0.5,0.4,0.7l0,0L21,7.2L21,7.2z M19,7.2L19,7.2l2,0v0L19,7.2L19,7.2L19,7.2
							c-0.1-0.3-0.3-0.5-0.4-0.7c-0.1-0.3-0.1-0.5-0.1-0.8c0-0.7,0.3-1.3,0.7-1.8c0.5-0.5,1.1-0.7,1.8-0.7v0c-0.7,0-1.3,0.3-1.8,0.7
							c-0.5,0.5-0.8,1.1-0.8,1.8c0,0.3,0,0.6,0.1,0.8C18.7,6.7,18.8,7,19,7.2L19,7.2z"/>
					</g>
					<g>
						<path class="st0" d="M20.5,7.1c0.1-0.2,0.1-0.5,0.1-0.7c0-0.5-0.1-0.9-0.3-1.3l0,0c0,0-0.1,0-0.1,0c0.2,0.4,0.3,0.8,0.3,1.3
							C20.5,6.7,20.5,6.9,20.5,7.1L20.5,7.1L20.5,7.1L21,7.2V7.1L20.5,7.1z"/>
						<path class="st0" d="M21,7.2l-0.6,0l0,0c0.1-0.2,0.1-0.5,0.1-0.8c0-0.5-0.1-0.9-0.3-1.3l0,0l0,0c0,0,0.1,0,0.1,0l0,0
							c0.2,0.4,0.3,0.8,0.3,1.3c0,0.2,0,0.5-0.1,0.7L21,7.2L21,7.2z M20.4,7.2l0.6,0v0L20.4,7.2L20.4,7.2c0.1-0.3,0.1-0.5,0.1-0.8
							c0-0.5-0.1-0.9-0.3-1.3c0,0,0,0,0,0c0.2,0.4,0.3,0.8,0.3,1.3C20.5,6.7,20.5,6.9,20.4,7.2L20.4,7.2z"/>
					</g>
					<g>
						<path class="st0" d="M21,10.7c-0.4,0-0.8,0-1.1-0.1l-0.2,0C20.1,10.7,20.6,10.8,21,10.7C21,10.8,21,10.8,21,10.7L21,10.7
							C21,10.7,21,10.7,21,10.7z"/>
						<path class="st0" d="M20.9,10.8c-0.4,0-0.8-0.1-1.2-0.2l-0.1,0l0.2,0l0,0c0.4,0.1,0.7,0.1,1.1,0.1l0,0v0.1l0,0
							C21,10.8,20.9,10.8,20.9,10.8z M19.8,10.6c0.4,0.1,0.8,0.2,1.2,0.2l0,0v0l0,0C20.6,10.8,20.3,10.7,19.8,10.6L19.8,10.6z"/>
					</g>
					<g>
						<path class="st0" d="M20.5,11.5c0.2,0,0.4,0,0.6,0v0L20.5,11.5z"/>
						<path class="st0" d="M20.9,11.6c-0.2,0-0.3,0-0.5,0l0,0l0.6,0v0.1L20.9,11.6C21,11.6,21,11.6,20.9,11.6z M20.7,11.5
							c0.1,0,0.2,0,0.3,0v0L20.7,11.5z"/>
					</g>
					<g>
						<path class="st0" d="M20.4,11.1l-0.3,0c0.3,0.1,0.6,0.1,0.9,0.1v0C20.8,11.1,20.6,11.1,20.4,11.1z"/>
						<path class="st0" d="M20.9,11.2c-0.3,0-0.5,0-0.8-0.1l-0.1,0l0.4,0l0,0C20.6,11.1,20.8,11.1,20.9,11.2L20.9,11.2L20.9,11.2
							L20.9,11.2C21,11.2,21,11.2,20.9,11.2z M20.3,11.1c0.2,0,0.5,0.1,0.7,0v0c-0.2,0-0.4,0-0.6,0L20.3,11.1z"/>
					</g>
				</g>
				<g id="Element_10_">
					<g id="brainstorm_10_">
						<g>
							<g>
								<path class="st0" d="M23.6,6L23.6,6l-0.1-0.1c0-0.5-0.3-1-0.7-1h-0.6V4.9h0.6c0.2,0,0.4,0.1,0.6,0.3
									c0.2,0.2,0.2,0.5,0.2,0.7V6z"/>
								<path class="st0" d="M23.6,6L23.6,6l-0.1-0.2c0-0.5-0.3-1-0.7-1h-0.6V4.8h0.6c0.2,0,0.4,0.1,0.6,0.3
									c0.2,0.2,0.2,0.5,0.2,0.7V6z M23.5,6L23.5,6l0-0.1c0-0.3-0.1-0.5-0.2-0.7C23.2,5,23,4.9,22.8,4.9h-0.5v0h0.5
									c0.4,0,0.8,0.4,0.8,1V6z"/>
							</g>
							<g>
								<path class="st0" d="M22.8,9.5H22V9.5L22.8,9.5c0.2-0.1,0.3-0.2,0.3-0.5c0-0.2-0.1-0.4-0.3-0.4h-0.1V8.6h0.1
									c0.1,0,0.2,0.1,0.3,0.1c0.1,0.1,0.1,0.2,0.1,0.3c0,0.1,0,0.2-0.1,0.3C23,9.5,22.9,9.5,22.8,9.5z"/>
								<path class="st0" d="M22.8,9.5H22V9.4L22.8,9.5c0.2-0.1,0.3-0.3,0.3-0.5c0-0.2-0.1-0.4-0.3-0.4h-0.1V8.6h0.1
									c0.1,0,0.2,0.1,0.3,0.1c0.1,0.1,0.1,0.2,0.1,0.3c0,0.1,0,0.2-0.1,0.3C23,9.5,22.9,9.5,22.8,9.5z M22,9.5h0.8
									c0.1,0,0.2,0,0.3-0.1c0.1-0.1,0.1-0.2,0.1-0.3c0-0.1,0-0.2-0.1-0.3c-0.1-0.1-0.2-0.1-0.3-0.1h-0.1v0h0.1
									c0.2,0,0.3,0.2,0.3,0.4c0,0.2-0.1,0.4-0.3,0.4L22,9.5L22,9.5z"/>
							</g>
							<g>
								<path class="st0" d="M21.5,5.4L21.5,5.4c-0.1-0.2,0-0.3,0.1-0.4c0.1-0.1,0.2-0.1,0.4-0.1h0.9c0.1,0,0.2,0,0.2-0.1
									c0.1-0.1,0.1-0.2,0.1-0.2c0-0.2-0.1-0.4-0.3-0.4h-0.9V4h0.9c0.3,0,0.4,0.3,0.4,0.4c0,0.1,0,0.2-0.1,0.3
									c-0.1,0.1-0.2,0.2-0.3,0.2H22C21.7,4.9,21.5,5.1,21.5,5.4z"/>
								<path class="st0" d="M21.5,5.4L21.5,5.4L21.5,5.4c-0.1-0.2,0-0.3,0-0.4c0.1-0.1,0.2-0.2,0.4-0.2h0.9c0.1,0,0.2,0,0.2-0.1
									c0-0.1,0.1-0.2,0.1-0.2c0-0.1-0.1-0.4-0.3-0.4h-0.9V4h0.9c0.3,0,0.4,0.3,0.4,0.5c0,0.1,0,0.2-0.1,0.3
									c-0.1,0.1-0.2,0.2-0.3,0.2H22C21.7,4.9,21.5,5.1,21.5,5.4L21.5,5.4z M21.5,5.4L21.5,5.4c0-0.3,0.2-0.5,0.5-0.5h0.9
									c0.1,0,0.2-0.1,0.3-0.2c0-0.1,0.1-0.2,0.1-0.3c0-0.2-0.1-0.4-0.4-0.4h-0.9v0h0.9c0.2,0,0.3,0.2,0.3,0.4c0,0.1,0,0.2-0.1,0.3
									C23,4.8,23,4.9,22.9,4.9H22c-0.2,0-0.3,0-0.4,0.1C21.5,5.1,21.5,5.2,21.5,5.4z"/>
							</g>
							<g>
								<path class="st0" d="M22.5,6.7h-0.6V6.7L22.5,6.7c0.2-0.1,0.3-0.2,0.3-0.5c0-0.2-0.1-0.4-0.3-0.4V5.8c0.1,0,0.2,0.1,0.3,0.1
									c0.1,0.1,0.1,0.2,0.1,0.3c0,0.1,0,0.2-0.1,0.3C22.7,6.7,22.6,6.7,22.5,6.7z"/>
								<path class="st0" d="M22.5,6.7h-0.6V6.7L22.5,6.7c0.2-0.1,0.3-0.3,0.3-0.5c0-0.2-0.1-0.4-0.3-0.4h0V5.8h0
									c0.1,0,0.2,0.1,0.3,0.1c0.1,0.1,0.1,0.2,0.1,0.3c0,0.1,0,0.2-0.1,0.3C22.7,6.7,22.6,6.7,22.5,6.7z M21.9,6.7h0.6
									c0.1,0,0.2,0,0.3-0.1c0.1-0.1,0.1-0.2,0.1-0.3c0-0.1,0-0.2-0.1-0.3c-0.1-0.1-0.2-0.1-0.2-0.1v0c0.2,0,0.3,0.2,0.3,0.4
									c0,0.2-0.1,0.4-0.3,0.4L21.9,6.7L21.9,6.7z"/>
							</g>
							<g>
								<path class="st0" d="M22.6,8.6h-0.8c-0.1,0-0.2-0.1-0.3-0.1c-0.1-0.1-0.1-0.2-0.1-0.3c0-0.1,0-0.2,0.1-0.3
									c0.1-0.1,0.2-0.1,0.3-0.1v0.1c-0.2,0-0.3,0.2-0.3,0.4c0,0.2,0.1,0.4,0.3,0.4L22.6,8.6L22.6,8.6z"/>
								<path class="st0" d="M22.6,8.7h-0.8c-0.1,0-0.2-0.1-0.3-0.1c-0.1-0.1-0.1-0.2-0.1-0.3c0-0.1,0-0.2,0.1-0.3
									c0.1-0.1,0.2-0.1,0.3-0.1h0v0.1h0c-0.2,0-0.3,0.2-0.3,0.4c0,0.2,0.1,0.4,0.3,0.4L22.6,8.7L22.6,8.7z M21.8,7.7
									c-0.1,0-0.2,0.1-0.2,0.1c-0.1,0.1-0.1,0.2-0.1,0.3c0,0.1,0,0.2,0.1,0.3c0.1,0.1,0.2,0.1,0.3,0.1h0.8v0h-0.8
									c-0.2,0-0.3-0.2-0.3-0.4C21.5,8,21.7,7.8,21.8,7.7L21.8,7.7z"/>
							</g>
							<g>
								<path class="st0" d="M21.2,11.5L21.2,11.5l-0.1-7.5c0-0.3,0.1-0.5,0.2-0.7c0.1-0.2,0.3-0.3,0.5-0.3c0.2,0,0.4,0.1,0.5,0.3
									c0.1,0.2,0.2,0.4,0.2,0.7h-0.1c0-0.5-0.3-0.9-0.7-0.9c-0.4,0-0.7,0.4-0.7,0.9V11.5z"/>
								<path class="st0" d="M21.2,11.5L21.2,11.5l-0.1-7.5c0-0.3,0.1-0.5,0.2-0.7c0.1-0.2,0.3-0.3,0.6-0.3c0.2,0,0.4,0.1,0.6,0.3
									c0.1,0.2,0.2,0.4,0.2,0.7v0h-0.1v0c0-0.5-0.3-0.9-0.7-0.9s-0.7,0.4-0.7,0.9V11.5z M21.2,11.5L21.2,11.5l0-7.4
									c0-0.5,0.3-0.9,0.7-0.9c0.4,0,0.7,0.4,0.7,0.9h0c0-0.3-0.1-0.5-0.2-0.7c-0.1-0.2-0.3-0.3-0.5-0.3c-0.2,0-0.4,0.1-0.5,0.3
									c-0.1,0.2-0.2,0.4-0.2,0.7V11.5z"/>
							</g>
							<g>
								<path class="st0" d="M22.7,8.6h-0.9V8.6L22.7,8.6c0.5-0.1,0.9-0.6,0.9-1.2h0.1c0,0.3-0.1,0.6-0.3,0.9
									c-0.1,0.1-0.2,0.2-0.3,0.3C23,8.6,22.8,8.6,22.7,8.6z"/>
								<path class="st0" d="M22.7,8.7h-0.9V8.6L22.7,8.7c0.5-0.1,0.9-0.6,0.9-1.2v0h0.1v0c0,0.3-0.1,0.6-0.3,0.9
									c-0.1,0.1-0.2,0.2-0.3,0.3C23,8.6,22.8,8.7,22.7,8.7z M21.8,8.6h0.9c0.1,0,0.3,0,0.4-0.1c0.1-0.1,0.2-0.1,0.3-0.3
									c0.2-0.2,0.3-0.5,0.3-0.8h0c0,0.6-0.4,1.2-0.9,1.2L21.8,8.6L21.8,8.6z"/>
							</g>
							<g>
								<path class="st0" d="M21.2,7.2L21.2,7.2c-0.1-0.1,0-0.3,0.1-0.4c0.1-0.1,0.2-0.2,0.3-0.2h0.7v0.1h-0.7
									C21.4,6.7,21.2,6.9,21.2,7.2z"/>
								<path class="st0" d="M21.2,7.2L21.2,7.2L21.2,7.2c-0.1-0.2,0-0.3,0-0.4c0.1-0.1,0.2-0.2,0.3-0.2h0.7v0.1h-0.7
									C21.4,6.7,21.2,6.9,21.2,7.2L21.2,7.2z M21.2,7.2L21.2,7.2c0-0.3,0.2-0.5,0.4-0.5h0.7v0h-0.7c-0.1,0-0.2,0.1-0.3,0.2
									C21.2,6.9,21.2,7,21.2,7.2z"/>
							</g>
							<g>
								<path class="st0" d="M22,10.4h-0.5v-0.1L22,10.4c0.2-0.1,0.3-0.2,0.3-0.5S22.2,9.5,22,9.5V9.5c0.1,0,0.2,0,0.3,0.1
									c0.1,0.1,0.1,0.2,0.1,0.3c0,0.1,0,0.2-0.1,0.3C22.2,10.3,22.1,10.4,22,10.4z"/>
								<path class="st0" d="M22,10.4h-0.5v-0.1L22,10.4c0.2-0.1,0.3-0.3,0.3-0.5S22.2,9.5,22,9.5h0V9.4h0c0.1,0,0.2,0.1,0.3,0.1
									c0.1,0.1,0.1,0.2,0.1,0.3s0,0.2-0.1,0.3C22.2,10.3,22.2,10.4,22,10.4z M21.5,10.4H22c0.1,0,0.2,0,0.2-0.1
									c0.1-0.1,0.1-0.2,0.1-0.3c0-0.1,0-0.2-0.1-0.3c-0.1-0.1-0.1-0.1-0.2-0.1v0c0.2,0,0.3,0.2,0.3,0.4c0,0.2-0.1,0.4-0.3,0.4
									L21.5,10.4L21.5,10.4z"/>
							</g>
							<g>
								<path class="st0" d="M23.2,7.6h-0.7V7.6L23.2,7.6c0.3-0.1,0.6-0.4,0.6-0.9c0-0.4-0.3-0.8-0.6-0.8H23V5.9h0.2
									c0.2,0,0.4,0.1,0.5,0.3c0.1,0.2,0.2,0.4,0.2,0.6c0,0.2-0.1,0.5-0.2,0.6C23.6,7.5,23.4,7.6,23.2,7.6z"/>
								<path class="st0" d="M23.2,7.6h-0.7V7.6L23.2,7.6c0.3-0.1,0.6-0.5,0.6-0.9c0-0.4-0.3-0.8-0.6-0.8H23V5.9h0.2
									c0.2,0,0.4,0.1,0.5,0.3c0.1,0.2,0.2,0.4,0.2,0.6s-0.1,0.5-0.2,0.6C23.6,7.6,23.4,7.6,23.2,7.6z M22.5,7.6h0.7
									c0.2,0,0.4-0.1,0.5-0.3c0.1-0.2,0.2-0.4,0.2-0.6c0-0.2-0.1-0.4-0.2-0.6c-0.1-0.2-0.3-0.3-0.5-0.3H23v0h0.2
									c0.4,0,0.6,0.4,0.6,0.8c0,0.5-0.3,0.8-0.6,0.8L22.5,7.6L22.5,7.6z"/>
							</g>
							<g>
								<path class="st0" d="M21.9,7.7c0-0.1,0-0.1-0.1-0.1c0,0-0.1,0-0.1,0.1c0,0.1,0,0.1,0.1,0.1C21.9,7.8,21.9,7.8,21.9,7.7z"/>
								<path class="st0" d="M21.8,7.9c-0.1,0-0.1-0.1-0.1-0.1c0-0.1,0-0.1,0.1-0.1c0.1,0,0.1,0.1,0.1,0.1
									C21.9,7.8,21.9,7.9,21.8,7.9z M21.8,7.7C21.8,7.7,21.8,7.7,21.8,7.7c-0.1,0.1,0,0.2,0,0.2C21.9,7.8,21.9,7.8,21.8,7.7
									C21.9,7.7,21.9,7.7,21.8,7.7z"/>
							</g>
							<g>
								<path class="st0" d="M23.1,5.9c0-0.1,0-0.1-0.1-0.1c0,0-0.1,0-0.1,0.1C22.9,6,22.9,6,23,6C23,6,23.1,6,23.1,5.9z"/>
								<path class="st0" d="M23,6c-0.1,0-0.1-0.1-0.1-0.1c0-0.1,0-0.1,0.1-0.1c0.1,0,0.1,0.1,0.1,0.1C23.1,6,23,6,23,6z M23,5.8
									C23,5.8,22.9,5.9,23,5.8C22.9,6,23,6,23,6C23,6,23.1,6,23,5.8C23.1,5.9,23,5.8,23,5.8z"/>
							</g>
							<g>
								<path class="st0" d="M22.6,5.8c0-0.1,0-0.1-0.1-0.1c0,0-0.1,0-0.1,0.1c0,0.1,0,0.1,0.1,0.1C22.5,5.9,22.6,5.9,22.6,5.8z"/>
								<path class="st0" d="M22.5,5.9c-0.1,0-0.1-0.1-0.1-0.1c0-0.1,0-0.1,0.1-0.1c0.1,0,0.1,0.1,0.1,0.1
									C22.6,5.9,22.5,5.9,22.5,5.9z M22.5,5.7C22.4,5.7,22.4,5.8,22.5,5.7c-0.1,0.1,0,0.2,0,0.2C22.5,5.9,22.5,5.9,22.5,5.7
									C22.5,5.8,22.5,5.7,22.5,5.7z"/>
							</g>
							<g>
								<path class="st0" d="M22.6,7.6c0-0.1,0-0.1-0.1-0.1c0,0-0.1,0-0.1,0.1c0,0.1,0,0.1,0.1,0.1C22.6,7.7,22.6,7.7,22.6,7.6z"/>
								<path class="st0" d="M22.5,7.7c-0.1,0-0.1-0.1-0.1-0.1c0-0.1,0-0.1,0.1-0.1c0.1,0,0.1,0.1,0.1,0.1
									C22.6,7.7,22.6,7.7,22.5,7.7z M22.5,7.5C22.5,7.5,22.5,7.6,22.5,7.5c-0.1,0.1,0,0.2,0,0.2C22.6,7.7,22.6,7.7,22.5,7.5
									C22.6,7.6,22.6,7.5,22.5,7.5z"/>
							</g>
							<g>
								<path class="st0" d="M21.6,5.4c0-0.1,0-0.1-0.1-0.1c0,0-0.1,0-0.1,0.1c0,0.1,0,0.1,0.1,0.1C21.5,5.5,21.6,5.4,21.6,5.4z"/>
								<path class="st0" d="M21.5,5.5c-0.1,0-0.1-0.1-0.1-0.1c0-0.1,0-0.1,0.1-0.1c0.1,0,0.1,0.1,0.1,0.1
									C21.6,5.4,21.5,5.5,21.5,5.5z M21.5,5.3C21.4,5.3,21.4,5.3,21.5,5.3c-0.1,0.1,0,0.2,0,0.2C21.5,5.5,21.5,5.4,21.5,5.3
									C21.5,5.3,21.5,5.3,21.5,5.3z"/>
							</g>
							<g>
								<path class="st0" d="M21.3,11.5c0-0.1,0-0.1-0.1-0.1c0,0-0.1,0-0.1,0.1c0,0.1,0,0.1,0.1,0.1C21.2,11.6,21.3,11.6,21.3,11.5z
									"/>
								<path class="st0" d="M21.2,11.6c-0.1,0-0.1-0.1-0.1-0.1c0-0.1,0-0.1,0.1-0.1c0.1,0,0.1,0.1,0.1,0.1
									C21.3,11.6,21.2,11.6,21.2,11.6z M21.2,11.4C21.1,11.4,21.1,11.5,21.2,11.4c-0.1,0.1,0,0.2,0,0.2
									C21.2,11.6,21.2,11.6,21.2,11.4C21.2,11.5,21.2,11.4,21.2,11.4z"/>
							</g>
							<g>
								<path class="st0" d="M22,4.1C22,4,22,4,21.9,4c0,0-0.1,0-0.1,0.1c0,0.1,0,0.1,0.1,0.1C22,4.2,22,4.1,22,4.1z"/>
								<path class="st0" d="M21.9,4.2c-0.1,0-0.1-0.1-0.1-0.1c0-0.1,0-0.1,0.1-0.1C22,3.9,22,4,22,4.1C22,4.1,22,4.2,21.9,4.2z
									 M21.9,4C21.9,4,21.8,4,21.9,4c-0.1,0.1,0,0.2,0,0.2C22,4.2,22,4.1,21.9,4C22,4,22,4,21.9,4z"/>
							</g>
							<g>
								<path class="st0" d="M21.6,10.3c0-0.1,0-0.1-0.1-0.1c0,0-0.1,0-0.1,0.1c0,0.1,0,0.1,0.1,0.1C21.6,10.4,21.6,10.4,21.6,10.3z
									"/>
								<path class="st0" d="M21.5,10.5c-0.1,0-0.1-0.1-0.1-0.1c0-0.1,0-0.1,0.1-0.1c0.1,0,0.1,0.1,0.1,0.1
									C21.6,10.4,21.6,10.5,21.5,10.5z M21.5,10.3C21.5,10.3,21.5,10.3,21.5,10.3c-0.1,0.1,0,0.2,0,0.2
									C21.6,10.4,21.6,10.4,21.5,10.3C21.6,10.3,21.6,10.3,21.5,10.3z"/>
							</g>
							<g>
								<path class="st0" d="M22.1,9.5c0-0.1,0-0.1-0.1-0.1c0,0-0.1,0-0.1,0.1c0,0.1,0,0.1,0.1,0.1C22.1,9.6,22.1,9.5,22.1,9.5z"/>
								<path class="st0" d="M22.1,9.6C22,9.6,22,9.6,22,9.5c0-0.1,0-0.1,0.1-0.1c0.1,0,0.1,0.1,0.1,0.1C22.1,9.6,22.1,9.6,22.1,9.6
									z M22.1,9.4C22,9.4,22,9.4,22.1,9.4c-0.1,0.1,0,0.2,0,0.2C22.1,9.6,22.1,9.5,22.1,9.4C22.1,9.4,22.1,9.4,22.1,9.4z"/>
							</g>
							<g>
								<rect x="23.6" y="7.4" class="st0" width="0.1" height="0"/>
								<path class="st0" d="M23.7,7.4L23.7,7.4L23.7,7.4L23.7,7.4L23.7,7.4z M23.6,7.4L23.6,7.4L23.6,7.4L23.6,7.4L23.6,7.4z"/>
							</g>
						</g>
					</g>
				</g>
				<rect x="21" y="11.1" class="st0" width="0" height="0.4"/>
				<rect x="21" y="10.8" class="st0" width="0" height="0.3"/>
				<rect x="21" y="10.4" class="st0" width="0" height="0.4"/>
				<rect x="21" y="7.7" class="st0" width="0" height="2.6"/>
				<rect x="21" y="7.2" class="st0" width="0" height="0.4"/>
			</g>
		</g>
	</g>
</g>
</svg>
