<?xml version="1.0" encoding="utf-8"?>
<!-- Generator: Adobe Illustrator 24.0.1, SVG Export Plug-In . SVG Version: 6.00 Build 0)  -->
<svg version="1.1" id="Layer_1" xmlns="http://www.w3.org/2000/svg" xmlns:xlink="http://www.w3.org/1999/xlink" x="0px" y="0px"
	 viewBox="0 0 41.6 30" style="enable-background:new 0 0 41.6 30;" xml:space="preserve">
<style type="text/css">
	.st0{fill:#FFFFFF;}
	.st1{font-family:'MSReferenceSansSerif';}
	.st2{font-size:3.6654px;}
	.st3{fill:#7267EF;}
</style>
<g>
	<text transform="matrix(1 0 0 1 9.6308 29.188)" class="st0 st1 st2">Let’s start</text>
	<g>
		<g>
			<g>
				<g>
					<g>
						<g>
							<polygon class="st3" points="16.2,23.1 13.6,23.1 13.7,11.3 16.2,12.4 							"/>
							<path class="st0" d="M16.4,23.3h-3L13.5,11l2.8,1.3L16.4,23.3z M13.8,23h2.3L16,12.5l-2.2-1L13.8,23z"/>
						</g>
						<g>
							<polygon class="st3" points="27.9,11.3 25.4,12.4 25.3,23.1 28,23.1 							"/>
							<path class="st0" d="M28.1,23.3h-3l0.1-11l2.8-1.3L28.1,23.3z M25.5,23h2.3l-0.1-11.4l-2.2,1L25.5,23z"/>
						</g>
						<g>
							<polygon class="st3" points="22,13.9 20.8,14.4 20.8,14.4 19.5,13.9 19.5,23.1 22.1,23.1 							"/>
							<path class="st0" d="M22.3,23.3h-3l0.1-9.6l1.4,0.6l1.4-0.6L22.3,23.3z M19.6,23h2.3l-0.1-8.9l-1.1,0.5l-0.1,0l-1-0.5
								L19.6,23z"/>
						</g>
					</g>
				</g>
				<path class="st0" d="M38.4,23.5L38.4,23.5c0-0.3-0.2-0.5-0.5-0.5H3.7c-0.3,0-0.5,0.2-0.5,0.5l0,0C3.2,23.8,3,24,2.7,24H1
					c-0.3,0-0.5,0.2-0.5,0.5v1.1h40.7v-1.1c0-0.3-0.2-0.5-0.5-0.5h-1.7C38.7,24,38.4,23.8,38.4,23.5z"/>
				<g>
					<path class="st0" d="M8.4,12.6H8.2c-0.3,0-0.5-0.2-0.5-0.5V8.7c0-0.3,0.2-0.5,0.5-0.5h0.2c0.3,0,0.5,0.2,0.5,0.5v3.4
						C8.8,12.4,8.6,12.6,8.4,12.6z"/>
					<path class="st3" d="M34.1,7.3L28,10l-0.1,0l-2.5,1.1l-0.1,0l-3.2,1.4l-0.1,0l-1.3,0.6l-1.3-0.6l-0.1,0l-3.2-1.4l0,0v1.2l0,0
						l-2.5-1.1l-0.1,0l0,0l-3.2-1.4L7.5,8.5C7,8.3,7,7.5,7.5,7.3l0,0l13.3-5.9L31.2,6L34.1,7.3z"/>
					<path class="st0" d="M34.1,7.3c0.5,0.2,0.5,1,0,1.2L28,11.2l-0.1,0l-2.5,1.1l-0.1,0l-3.2,1.4l-0.1,0l-1.3,0.6l-1.3-0.6l-0.1,0
						l-3.2-1.4l0,0v-1.2l0,0l3.2,1.4l0.1,0l1.3,0.6l1.3-0.6l0.1,0l3.2-1.4l0.1,0l2.5-1.1l0.1,0L34.1,7.3L34.1,7.3z"/>
					<path class="st0" d="M34.2,7.3l-3-1.3L20.8,1.4l0,0L7.4,7.2l0,0c-0.6,0.2-0.6,1,0,1.3l3,1.3l3.2,1.4l0,0l0.1,0l2.5,1.1l0,0l0,0
						l3.2,1.4l0.1,0l1.3,0.6l0,0l1.3-0.6l0.1,0l3.2-1.4l0.1,0l2.5-1.1l0.1,0l6.2-2.8C34.8,8.3,34.8,7.5,34.2,7.3L34.2,7.3z
						 M27.9,11.2l-2.5,1.1l-0.1,0l-3.2,1.4l-0.1,0l-1.3,0.6l-1.3-0.6l-0.1,0l-3.2-1.4l0,0l0,0l-2.5-1.1l-0.1,0l0,0l-3.2-1.4L7.5,8.5
						C7,8.3,7,7.5,7.5,7.3l0,0l13.3-5.9L31.2,6l2.9,1.3l0,0c0.5,0.2,0.5,1,0,1.2L27.9,11.2L27.9,11.2z"/>
				</g>
			</g>
			<g>
				<path class="st3" d="M34.2,6.1l-3-1.3L20.8,0.2L7.4,6.1C6.9,6.3,6.9,7,7.4,7.2l0,0l0.1,0l2.9,1.3l3.2,1.4l0,0l0.1,0l2.5,1.1l0,0
					l0,0l3.2,1.4l0.1,0l1.3,0.6c0,0,0,0,0,0l1.3-0.6l0.1,0l3.2-1.4l0.1,0l2.5-1.1l0.1,0l6.1-2.7l0.1,0l0,0C34.7,7,34.7,6.3,34.2,6.1
					z"/>
				<path class="st0" d="M20.8,13.3C20.8,13.3,20.8,13.3,20.8,13.3L7.4,7.4C7.1,7.3,6.9,7,6.9,6.7c0-0.3,0.2-0.6,0.5-0.7L20.8,0
					L34.2,6c0.3,0.1,0.5,0.4,0.5,0.7c0,0.3-0.2,0.6-0.5,0.7L20.8,13.3C20.9,13.3,20.8,13.3,20.8,13.3z M20.8,0.4L7.5,6.2
					C7.3,6.3,7.2,6.5,7.2,6.7c0,0.1,0.1,0.3,0.3,0.4L20.8,13l13.3-5.9c0.2-0.1,0.3-0.3,0.3-0.4c0-0.1-0.1-0.3-0.3-0.4L20.8,0.4z"/>
			</g>
		</g>
		<g>
			<g>
				<g>
					<path class="st0" d="M20.7,9.8L20.7,9.8l-1.3,0l0,0c0.2-0.3,0.3-0.8,0.3-1.2c0-0.1,0-0.2,0-0.3c0-0.4-0.1-0.7-0.3-1
						c-0.2-0.2-0.4-0.4-0.6-0.5l-0.1,0l0,0l0.1,0c0.1,0,0.2,0.1,0.2,0.1c0.2,0.1,0.4,0.3,0.5,0.5c0.2,0.3,0.3,0.6,0.3,1
						c0,0.1,0,0.2,0,0.2c0,0.4-0.1,0.9-0.3,1.2L20.7,9.8z"/>
					<path class="st0" d="M20.7,9.9l-1.3,0l0-0.1c0.2-0.3,0.3-0.8,0.3-1.2c0-0.1,0-0.2,0-0.3c0-0.4-0.1-0.7-0.3-1
						C19.2,7.1,19,7,18.8,6.8l-0.2-0.1l0.1,0c0.1,0,0.2,0.1,0.2,0.1c0.2,0.1,0.4,0.3,0.5,0.5c0.2,0.3,0.3,0.7,0.3,1
						c0,0.1,0,0.2,0,0.2c0,0.4-0.1,0.8-0.3,1.2L20.7,9.9L20.7,9.9z M19.4,9.8l1.3,0v0L19.4,9.8L19.4,9.8c0.3-0.4,0.4-0.8,0.4-1.2
						c0-0.1,0-0.2,0-0.2c0-0.4-0.1-0.7-0.3-1c-0.1-0.2-0.3-0.4-0.5-0.5c0,0,0,0,0,0c0,0-0.1,0-0.2-0.1l0.1,0
						c0.2,0.1,0.4,0.3,0.6,0.5c0.2,0.3,0.3,0.6,0.3,1c0,0.1,0,0.2,0,0.3C19.7,9,19.6,9.5,19.4,9.8L19.4,9.8z"/>
				</g>
				<g>
					<path class="st0" d="M20.7,7.1c-0.4,0-0.8-0.1-1.1-0.2l-0.2,0C19.8,7.1,20.2,7.2,20.7,7.1L20.7,7.1L20.7,7.1L20.7,7.1z"/>
					<path class="st0" d="M20.7,7.2L20.7,7.2c-0.5,0-0.9-0.1-1.3-0.2l-0.1,0l0.2,0C19.9,7.1,20.3,7.1,20.7,7.2L20.7,7.2L20.7,7.2z
						 M19.5,7c0.4,0.1,0.8,0.2,1.2,0.2v0C20.3,7.1,19.9,7.1,19.5,7L19.5,7z"/>
				</g>
				<g>
					<path class="st0" d="M20.7,2.7L20.7,2.7c-0.7-0.1-1.3,0.2-1.8,0.7c-0.5,0.5-0.8,1.1-0.8,1.8c0,0.3,0,0.6,0.1,0.8
						c0.1,0.3,0.2,0.5,0.4,0.7l0,0l0.1,0l2,0V6.7l-0.6,0l-1.4,0l0,0c-0.2-0.2-0.3-0.4-0.4-0.7c-0.1-0.3-0.1-0.5-0.1-0.8
						c0-0.7,0.3-1.3,0.7-1.8C19.4,2.9,20,2.7,20.7,2.7z"/>
					<path class="st0" d="M20.7,6.8l-2,0l-0.1,0l0,0c-0.2-0.2-0.3-0.5-0.4-0.7c-0.1-0.3-0.1-0.6-0.1-0.8c0-0.7,0.3-1.3,0.8-1.8
						c0.5-0.5,1.1-0.7,1.8-0.7c0,0,0,0,0,0h0v0.1h0c0,0,0,0,0,0c-0.7,0-1.3,0.3-1.7,0.7c-0.5,0.5-0.7,1.1-0.7,1.8
						c0,0.3,0,0.6,0.1,0.8c0.1,0.2,0.2,0.5,0.4,0.7l0,0L20.7,6.8L20.7,6.8z M18.6,6.7L18.6,6.7l2,0v0L18.6,6.7L18.6,6.7L18.6,6.7
						c-0.1-0.3-0.3-0.5-0.4-0.7c-0.1-0.3-0.1-0.5-0.1-0.8c0-0.7,0.3-1.3,0.7-1.8c0.5-0.5,1.1-0.7,1.8-0.7v0c-0.7,0-1.3,0.3-1.8,0.7
						c-0.5,0.5-0.8,1.1-0.8,1.8c0,0.3,0,0.6,0.1,0.8C18.3,6.2,18.5,6.5,18.6,6.7L18.6,6.7z"/>
				</g>
				<g>
					<path class="st0" d="M20.1,6.7c0.1-0.2,0.1-0.5,0.1-0.7c0-0.5-0.1-0.9-0.3-1.3l0,0c0,0-0.1,0-0.1,0C20,5,20.2,5.4,20.2,5.9
						C20.2,6.2,20.1,6.4,20.1,6.7L20.1,6.7L20.1,6.7l0.5,0.1V6.7L20.1,6.7z"/>
					<path class="st0" d="M20.7,6.7l-0.6,0l0,0c0.1-0.2,0.1-0.5,0.1-0.8c0-0.5-0.1-0.9-0.3-1.3l0,0l0,0c0,0,0.1,0,0.1,0l0,0
						c0.2,0.4,0.3,0.8,0.3,1.3c0,0.2,0,0.5-0.1,0.7L20.7,6.7L20.7,6.7z M20.1,6.7l0.6,0v0L20.1,6.7L20.1,6.7
						c0.1-0.3,0.1-0.5,0.1-0.8c0-0.5-0.1-0.9-0.3-1.3c0,0,0,0,0,0c0.2,0.4,0.3,0.8,0.3,1.3C20.2,6.2,20.1,6.4,20.1,6.7L20.1,6.7z"/>
				</g>
				<g>
					<path class="st0" d="M20.6,10.2c-0.4,0-0.8,0-1.1-0.1l-0.2,0C19.8,10.2,20.2,10.3,20.6,10.2C20.6,10.3,20.7,10.3,20.6,10.2
						L20.6,10.2C20.7,10.2,20.6,10.2,20.6,10.2z"/>
					<path class="st0" d="M20.5,10.3c-0.4,0-0.8-0.1-1.2-0.2l-0.1,0l0.2,0l0,0c0.4,0.1,0.7,0.1,1.1,0.1l0,0v0.1l0,0
						C20.6,10.3,20.6,10.3,20.5,10.3z M19.5,10.1c0.4,0.1,0.8,0.2,1.2,0.2l0,0v0l0,0C20.3,10.3,19.9,10.2,19.5,10.1L19.5,10.1z"/>
				</g>
				<g>
					<path class="st0" d="M20.1,11c0.2,0,0.4,0,0.5,0v0L20.1,11z"/>
					<path class="st0" d="M20.6,11.1c-0.2,0-0.3,0-0.5,0l0,0l0.6,0v0.1L20.6,11.1C20.6,11.1,20.6,11.1,20.6,11.1z M20.4,11
						c0.1,0,0.2,0,0.3,0v0L20.4,11z"/>
				</g>
				<g>
					<path class="st0" d="M20.1,10.6l-0.3,0c0.3,0.1,0.6,0.1,0.9,0.1v0C20.5,10.6,20.2,10.6,20.1,10.6z"/>
					<path class="st0" d="M20.6,10.7c-0.3,0-0.5,0-0.8-0.1l-0.1,0l0.4,0l0,0C20.2,10.6,20.5,10.6,20.6,10.7L20.6,10.7L20.6,10.7
						L20.6,10.7C20.6,10.7,20.6,10.7,20.6,10.7z M19.9,10.6c0.2,0,0.5,0.1,0.7,0v0c-0.2,0-0.4,0-0.6,0L19.9,10.6z"/>
				</g>
			</g>
			<g id="Element_4_">
				<g id="brainstorm_4_">
					<g>
						<g>
							<path class="st0" d="M23.2,5.5L23.2,5.5l-0.1-0.1c0-0.5-0.3-1-0.7-1h-0.6V4.4h0.6c0.2,0,0.4,0.1,0.6,0.3
								c0.2,0.2,0.2,0.5,0.2,0.7V5.5z"/>
							<path class="st0" d="M23.2,5.6L23.2,5.6l-0.1-0.2c0-0.5-0.3-1-0.7-1h-0.6V4.4h0.6c0.2,0,0.4,0.1,0.6,0.3
								c0.2,0.2,0.2,0.5,0.2,0.7V5.6z M23.1,5.5L23.1,5.5l0-0.1c0-0.3-0.1-0.5-0.2-0.7c-0.2-0.2-0.4-0.3-0.6-0.3h-0.5v0h0.5
								c0.4,0,0.8,0.4,0.8,1V5.5z"/>
						</g>
						<g>
							<path class="st0" d="M22.4,9h-0.8V9L22.4,9c0.2-0.1,0.3-0.2,0.3-0.5c0-0.2-0.1-0.4-0.3-0.4h-0.1V8.1h0.1c0.1,0,0.2,0,0.3,0.1
								c0.1,0.1,0.1,0.2,0.1,0.3c0,0.1,0,0.2-0.1,0.3C22.6,9,22.5,9,22.4,9z"/>
							<path class="st0" d="M22.4,9h-0.8V9L22.4,9c0.2-0.1,0.3-0.3,0.3-0.5c0-0.2-0.1-0.4-0.3-0.4h-0.1V8.1h0.1
								c0.1,0,0.2,0.1,0.3,0.1c0.1,0.1,0.1,0.2,0.1,0.3c0,0.1,0,0.2-0.1,0.3C22.6,9,22.5,9,22.4,9z M21.7,9h0.8c0.1,0,0.2,0,0.3-0.1
								c0.1-0.1,0.1-0.2,0.1-0.3c0-0.1,0-0.2-0.1-0.3c-0.1-0.1-0.2-0.1-0.3-0.1h-0.1v0h0.1c0.2,0,0.3,0.2,0.3,0.4
								c0,0.2-0.1,0.4-0.3,0.4L21.7,9L21.7,9z"/>
						</g>
						<g>
							<path class="st0" d="M21.2,4.9L21.2,4.9c-0.1-0.2,0-0.3,0.1-0.4c0.1-0.1,0.2-0.1,0.4-0.1h0.9c0.1,0,0.2,0,0.2-0.1
								c0.1-0.1,0.1-0.2,0.1-0.2c0-0.2-0.1-0.4-0.3-0.4h-0.9V3.6h0.9c0.3,0,0.4,0.3,0.4,0.4c0,0.1,0,0.2-0.1,0.3
								c-0.1,0.1-0.2,0.2-0.3,0.2h-0.9C21.3,4.4,21.2,4.6,21.2,4.9z"/>
							<path class="st0" d="M21.2,4.9L21.2,4.9L21.2,4.9c-0.1-0.2,0-0.3,0-0.4c0.1-0.1,0.2-0.2,0.4-0.2h0.9c0.1,0,0.2,0,0.2-0.1
								c0-0.1,0.1-0.2,0.1-0.2c0-0.1-0.1-0.4-0.3-0.4h-0.9V3.5h0.9c0.3,0,0.4,0.3,0.4,0.5c0,0.1,0,0.2-0.1,0.3
								c-0.1,0.1-0.2,0.2-0.3,0.2h-0.9C21.3,4.4,21.2,4.6,21.2,4.9L21.2,4.9z M21.1,4.9L21.1,4.9c0-0.3,0.2-0.5,0.5-0.5h0.9
								c0.1,0,0.2-0.1,0.3-0.2c0-0.1,0.1-0.2,0.1-0.3c0-0.2-0.1-0.4-0.4-0.4h-0.9v0h0.9c0.2,0,0.3,0.2,0.3,0.4c0,0.1,0,0.2-0.1,0.3
								c-0.1,0.1-0.1,0.1-0.2,0.1h-0.9c-0.2,0-0.3,0-0.4,0.1C21.1,4.6,21.1,4.7,21.1,4.9z"/>
						</g>
						<g>
							<path class="st0" d="M22.1,6.2h-0.6V6.2L22.1,6.2c0.2-0.1,0.3-0.2,0.3-0.5c0-0.2-0.1-0.4-0.3-0.4V5.3c0.1,0,0.2,0,0.3,0.1
								c0.1,0.1,0.1,0.2,0.1,0.3c0,0.1,0,0.2-0.1,0.3C22.3,6.2,22.2,6.2,22.1,6.2z"/>
							<path class="st0" d="M22.1,6.3h-0.6V6.2L22.1,6.3c0.2-0.1,0.3-0.3,0.3-0.5c0-0.2-0.1-0.4-0.3-0.4h0V5.3h0
								c0.1,0,0.2,0.1,0.3,0.1c0.1,0.1,0.1,0.2,0.1,0.3s0,0.2-0.1,0.3C22.3,6.2,22.2,6.3,22.1,6.3z M21.5,6.2h0.6
								c0.1,0,0.2,0,0.3-0.1c0.1-0.1,0.1-0.2,0.1-0.3s0-0.2-0.1-0.3c-0.1-0.1-0.2-0.1-0.2-0.1v0c0.2,0,0.3,0.2,0.3,0.4
								c0,0.2-0.1,0.4-0.3,0.4L21.5,6.2L21.5,6.2z"/>
						</g>
						<g>
							<path class="st0" d="M22.2,8.2h-0.8c-0.1,0-0.2,0-0.3-0.1c-0.1-0.1-0.1-0.2-0.1-0.3c0-0.1,0-0.2,0.1-0.3
								c0.1-0.1,0.2-0.1,0.3-0.1v0.1c-0.2,0-0.3,0.2-0.3,0.4c0,0.2,0.1,0.4,0.3,0.4L22.2,8.2L22.2,8.2z"/>
							<path class="st0" d="M22.3,8.2h-0.8c-0.1,0-0.2-0.1-0.3-0.1c-0.1-0.1-0.1-0.2-0.1-0.3c0-0.1,0-0.2,0.1-0.3
								c0.1-0.1,0.2-0.1,0.3-0.1h0v0.1h0c-0.2,0-0.3,0.2-0.3,0.4s0.1,0.4,0.3,0.4L22.3,8.2L22.3,8.2z M21.5,7.2
								c-0.1,0-0.2,0.1-0.2,0.1c-0.1,0.1-0.1,0.2-0.1,0.3c0,0.1,0,0.2,0.1,0.3c0.1,0.1,0.2,0.1,0.3,0.1h0.8v0h-0.8
								c-0.2,0-0.3-0.2-0.3-0.4C21.2,7.5,21.3,7.3,21.5,7.2L21.5,7.2z"/>
						</g>
						<g>
							<path class="st0" d="M20.8,11L20.8,11l-0.1-7.4c0-0.3,0.1-0.5,0.2-0.7c0.1-0.2,0.3-0.3,0.5-0.3c0.2,0,0.4,0.1,0.5,0.3
								c0.1,0.2,0.2,0.4,0.2,0.7h-0.1c0-0.5-0.3-0.9-0.7-0.9c-0.4,0-0.7,0.4-0.7,0.9V11z"/>
							<path class="st0" d="M20.9,11L20.9,11l-0.1-7.4c0-0.3,0.1-0.5,0.2-0.7c0.1-0.2,0.3-0.3,0.6-0.3c0.2,0,0.4,0.1,0.6,0.3
								c0.1,0.2,0.2,0.4,0.2,0.7v0h-0.1v0c0-0.5-0.3-0.9-0.7-0.9c-0.4,0-0.7,0.4-0.7,0.9V11z M20.8,11L20.8,11l0-7.4
								c0-0.5,0.3-0.9,0.7-0.9c0.4,0,0.7,0.4,0.7,0.9h0c0-0.3-0.1-0.5-0.2-0.7c-0.1-0.2-0.3-0.3-0.5-0.3c-0.2,0-0.4,0.1-0.5,0.3
								c-0.1,0.2-0.2,0.4-0.2,0.7V11z"/>
						</g>
						<g>
							<path class="st0" d="M22.3,8.2h-0.9V8.1L22.3,8.2c0.5-0.1,0.9-0.6,0.9-1.2h0.1c0,0.3-0.1,0.6-0.3,0.9
								c-0.1,0.1-0.2,0.2-0.3,0.3C22.6,8.1,22.5,8.2,22.3,8.2z"/>
							<path class="st0" d="M22.3,8.2h-0.9V8.1L22.3,8.2c0.5-0.1,0.9-0.6,0.9-1.2v0h0.1v0c0,0.3-0.1,0.6-0.3,0.9
								C23,7.9,22.8,8,22.7,8.1C22.6,8.1,22.5,8.2,22.3,8.2z M21.5,8.1h0.9c0.1,0,0.3,0,0.4-0.1C22.8,8,22.9,7.9,23,7.8
								c0.2-0.2,0.3-0.5,0.3-0.8h0c0,0.6-0.4,1.2-0.9,1.2L21.5,8.1L21.5,8.1z"/>
						</g>
						<g>
							<path class="st0" d="M20.8,6.7L20.8,6.7c-0.1-0.1,0-0.3,0.1-0.4c0.1-0.1,0.2-0.2,0.3-0.2h0.7v0.1h-0.7
								C21,6.2,20.8,6.4,20.8,6.7z"/>
							<path class="st0" d="M20.9,6.7L20.9,6.7L20.9,6.7c-0.1-0.2,0-0.3,0-0.4c0.1-0.1,0.2-0.2,0.3-0.2h0.7v0.1h-0.7
								C21,6.3,20.9,6.5,20.9,6.7L20.9,6.7z M20.8,6.7L20.8,6.7c0-0.3,0.2-0.5,0.4-0.5h0.7v0h-0.7c-0.1,0-0.2,0.1-0.3,0.2
								C20.8,6.4,20.8,6.6,20.8,6.7z"/>
						</g>
						<g>
							<path class="st0" d="M21.7,9.9h-0.5V9.8L21.7,9.9C21.8,9.8,22,9.6,22,9.4S21.8,9,21.7,9V9c0.1,0,0.2,0,0.3,0.1
								C22,9.2,22,9.3,22,9.4c0,0.1,0,0.2-0.1,0.3C21.9,9.8,21.8,9.9,21.7,9.9z"/>
							<path class="st0" d="M21.7,9.9h-0.5V9.8L21.7,9.9C21.8,9.8,22,9.6,22,9.4S21.8,9,21.7,9h0V9h0C21.8,9,21.9,9,22,9.1
								c0.1,0.1,0.1,0.2,0.1,0.3c0,0.1,0,0.2-0.1,0.3C21.9,9.8,21.8,9.9,21.7,9.9z M21.2,9.9h0.5c0.1,0,0.2,0,0.2-0.1
								C22,9.6,22,9.5,22,9.4c0-0.1,0-0.2-0.1-0.3C21.9,9,21.8,9,21.7,9v0C21.9,9,22,9.2,22,9.4c0,0.2-0.1,0.4-0.3,0.4L21.2,9.9
								L21.2,9.9z"/>
						</g>
						<g>
							<path class="st0" d="M22.8,7.1h-0.7V7.1L22.8,7.1c0.3-0.1,0.6-0.4,0.6-0.9c0-0.4-0.3-0.8-0.6-0.8h-0.2V5.4h0.2
								c0.2,0,0.4,0.1,0.5,0.3c0.1,0.2,0.2,0.4,0.2,0.6c0,0.2-0.1,0.5-0.2,0.6C23.2,7.1,23,7.1,22.8,7.1z"/>
							<path class="st0" d="M22.8,7.2h-0.7V7.1L22.8,7.2c0.3-0.1,0.6-0.5,0.6-0.9c0-0.4-0.3-0.8-0.6-0.8h-0.2V5.4h0.2
								c0.2,0,0.4,0.1,0.5,0.3c0.1,0.2,0.2,0.4,0.2,0.6c0,0.2-0.1,0.5-0.2,0.6C23.2,7.1,23,7.2,22.8,7.2z M22.1,7.1h0.7
								c0.2,0,0.4-0.1,0.5-0.3c0.1-0.2,0.2-0.4,0.2-0.6s-0.1-0.4-0.2-0.6c-0.1-0.2-0.3-0.3-0.5-0.3h-0.2v0h0.2
								c0.4,0,0.6,0.4,0.6,0.8c0,0.5-0.3,0.8-0.6,0.8L22.1,7.1L22.1,7.1z"/>
						</g>
						<g>
							<path class="st0" d="M21.6,7.3c0-0.1,0-0.1-0.1-0.1c0,0-0.1,0-0.1,0.1c0,0.1,0,0.1,0.1,0.1C21.5,7.4,21.6,7.3,21.6,7.3z"/>
							<path class="st0" d="M21.5,7.4c-0.1,0-0.1-0.1-0.1-0.1c0-0.1,0-0.1,0.1-0.1c0.1,0,0.1,0.1,0.1,0.1
								C21.6,7.3,21.5,7.4,21.5,7.4z M21.5,7.2C21.4,7.2,21.4,7.2,21.5,7.2c-0.1,0.1,0,0.2,0,0.2S21.5,7.3,21.5,7.2
								C21.5,7.2,21.5,7.2,21.5,7.2z"/>
						</g>
						<g>
							<path class="st0" d="M22.7,5.4c0-0.1,0-0.1-0.1-0.1c0,0-0.1,0-0.1,0.1c0,0.1,0,0.1,0.1,0.1C22.7,5.5,22.7,5.5,22.7,5.4z"/>
							<path class="st0" d="M22.6,5.5c-0.1,0-0.1-0.1-0.1-0.1c0-0.1,0-0.1,0.1-0.1c0.1,0,0.1,0.1,0.1,0.1
								C22.7,5.5,22.7,5.5,22.6,5.5z M22.6,5.3C22.6,5.3,22.6,5.4,22.6,5.3c-0.1,0.1,0,0.2,0,0.2S22.7,5.5,22.6,5.3
								C22.7,5.4,22.7,5.3,22.6,5.3z"/>
						</g>
						<g>
							<path class="st0" d="M22.2,5.3c0-0.1,0-0.1-0.1-0.1c0,0-0.1,0-0.1,0.1c0,0.1,0,0.1,0.1,0.1C22.2,5.4,22.2,5.4,22.2,5.3z"/>
							<path class="st0" d="M22.1,5.5c-0.1,0-0.1-0.1-0.1-0.1c0-0.1,0-0.1,0.1-0.1s0.1,0.1,0.1,0.1C22.2,5.4,22.2,5.5,22.1,5.5z
								 M22.1,5.2C22.1,5.2,22,5.3,22.1,5.2c-0.1,0.1,0,0.2,0,0.2C22.1,5.4,22.2,5.4,22.1,5.2C22.2,5.3,22.1,5.2,22.1,5.2z"/>
						</g>
						<g>
							<path class="st0" d="M22.2,7.1c0-0.1,0-0.1-0.1-0.1c0,0-0.1,0-0.1,0.1c0,0.1,0,0.1,0.1,0.1C22.2,7.2,22.2,7.2,22.2,7.1z"/>
							<path class="st0" d="M22.2,7.2c-0.1,0-0.1-0.1-0.1-0.1c0-0.1,0-0.1,0.1-0.1c0.1,0,0.1,0.1,0.1,0.1
								C22.3,7.2,22.2,7.2,22.2,7.2z M22.2,7C22.1,7,22.1,7.1,22.2,7c-0.1,0.1,0,0.2,0,0.2C22.2,7.2,22.2,7.2,22.2,7
								C22.2,7.1,22.2,7,22.2,7z"/>
						</g>
						<g>
							<path class="st0" d="M21.2,4.9c0-0.1,0-0.1-0.1-0.1c0,0-0.1,0-0.1,0.1c0,0.1,0,0.1,0.1,0.1C21.2,5,21.2,4.9,21.2,4.9z"/>
							<path class="st0" d="M21.1,5C21.1,5,21,5,21,4.9c0-0.1,0-0.1,0.1-0.1s0.1,0.1,0.1,0.1C21.2,5,21.2,5,21.1,5z M21.1,4.8
								C21.1,4.8,21.1,4.8,21.1,4.8c-0.1,0.1,0,0.2,0,0.2C21.2,5,21.2,4.9,21.1,4.8C21.2,4.8,21.2,4.8,21.1,4.8z"/>
						</g>
						<g>
							<path class="st0" d="M20.9,11c0-0.1,0-0.1-0.1-0.1c0,0-0.1,0-0.1,0.1c0,0.1,0,0.1,0.1,0.1C20.9,11.1,20.9,11.1,20.9,11z"/>
							<path class="st0" d="M20.8,11.1c-0.1,0-0.1-0.1-0.1-0.1c0-0.1,0-0.1,0.1-0.1c0.1,0,0.1,0.1,0.1,0.1
								C20.9,11.1,20.9,11.1,20.8,11.1z M20.8,10.9C20.8,10.9,20.7,11,20.8,10.9c-0.1,0.1,0,0.2,0,0.2
								C20.9,11.1,20.9,11.1,20.8,10.9C20.9,11,20.9,10.9,20.8,10.9z"/>
						</g>
						<g>
							<path class="st0" d="M21.6,3.6c0-0.1,0-0.1-0.1-0.1c0,0-0.1,0-0.1,0.1c0,0.1,0,0.1,0.1,0.1C21.6,3.7,21.6,3.6,21.6,3.6z"/>
							<path class="st0" d="M21.6,3.7c-0.1,0-0.1-0.1-0.1-0.1c0-0.1,0-0.1,0.1-0.1c0.1,0,0.1,0.1,0.1,0.1
								C21.6,3.6,21.6,3.7,21.6,3.7z M21.6,3.5C21.5,3.5,21.5,3.5,21.6,3.5c-0.1,0.1,0,0.2,0,0.2C21.6,3.7,21.6,3.6,21.6,3.5
								C21.6,3.5,21.6,3.5,21.6,3.5z"/>
						</g>
						<g>
							<path class="st0" d="M21.2,9.8c0-0.1,0-0.1-0.1-0.1c0,0-0.1,0-0.1,0.1c0,0.1,0,0.1,0.1,0.1C21.2,9.9,21.2,9.9,21.2,9.8z"/>
							<path class="st0" d="M21.2,10c-0.1,0-0.1-0.1-0.1-0.1c0-0.1,0-0.1,0.1-0.1c0.1,0,0.1,0.1,0.1,0.1C21.2,9.9,21.2,10,21.2,10z
								 M21.2,9.8C21.1,9.8,21.1,9.8,21.2,9.8c-0.1,0.1,0,0.2,0,0.2C21.2,9.9,21.2,9.9,21.2,9.8C21.2,9.8,21.2,9.8,21.2,9.8z"/>
						</g>
						<g>
							<path class="st0" d="M21.8,9c0-0.1,0-0.1-0.1-0.1c0,0-0.1,0-0.1,0.1c0,0.1,0,0.1,0.1,0.1C21.7,9.1,21.8,9.1,21.8,9z"/>
							<path class="st0" d="M21.7,9.1c-0.1,0-0.1-0.1-0.1-0.1c0-0.1,0-0.1,0.1-0.1c0.1,0,0.1,0.1,0.1,0.1
								C21.8,9.1,21.7,9.1,21.7,9.1z M21.7,8.9C21.7,8.9,21.6,8.9,21.7,8.9c-0.1,0.1,0,0.2,0,0.2S21.8,9,21.7,8.9
								C21.8,8.9,21.7,8.9,21.7,8.9z"/>
						</g>
						<g>
							<rect x="23.2" y="6.9" class="st0" width="0.1" height="0"/>
							<path class="st0" d="M23.3,6.9L23.3,6.9L23.3,6.9L23.3,6.9L23.3,6.9z M23.3,6.9L23.3,6.9L23.3,6.9L23.3,6.9L23.3,6.9z"/>
						</g>
					</g>
				</g>
			</g>
			<rect x="20.6" y="10.7" class="st0" width="0" height="0.4"/>
			<rect x="20.6" y="10.3" class="st0" width="0" height="0.3"/>
			<rect x="20.6" y="9.9" class="st0" width="0" height="0.4"/>
			<rect x="20.6" y="7.2" class="st0" width="0" height="2.6"/>
			<rect x="20.6" y="6.7" class="st0" width="0" height="0.4"/>
		</g>
	</g>
</g>
</svg>
